<svg width="28" height="28" viewBox="0 0 28 28" fill="none" xmlns="http://www.w3.org/2000/svg">
<path d="M14 21C13.2404 21 12.5048 20.8985 11.7956 20.6943C11.0852 20.4902 10.43 20.1927 9.82999 19.8042C8.95039 19.7458 8.05039 19.5615 7.12999 19.25C6.20959 18.9385 5.36959 18.424 4.60999 17.7042C3.85039 16.9843 3.22521 16.0417 2.73561 14.875C2.24481 13.7083 2 12.25 2 10.5V9.91667C2 9.1 2.29041 8.40934 2.87001 7.84584C3.44961 7.28234 4.16 7 5 7C5.78 7 6.45559 7.26249 7.02559 7.78749C7.59559 8.31249 7.91001 8.94482 7.97001 9.68332C8.53041 9.52815 9.02961 9.33332 9.47001 9.09999C9.91041 8.86665 10.3604 8.64267 10.82 8.42917C11.2796 8.19584 11.7596 7.99635 12.26 7.83185C12.7604 7.66618 13.34 7.58333 14 7.58333C14.6804 7.58333 15.2648 7.66618 15.7556 7.83185C16.2452 7.99635 16.7204 8.19584 17.18 8.42917C17.6204 8.64267 18.0656 8.86665 18.5156 9.09999C18.9656 9.33332 19.4696 9.52815 20.03 9.68332C20.09 8.92499 20.4056 8.28799 20.9756 7.77349C21.5456 7.25783 22.22 7 23 7C23.84 7 24.5504 7.28234 25.13 7.84584C25.7096 8.40934 26 9.1 26 9.91667V10.5C26 12.25 25.7552 13.7083 25.2656 14.875C24.7748 16.0417 24.1496 16.9843 23.39 17.7042C22.6304 18.424 21.7904 18.9385 20.87 19.25C19.9496 19.5615 19.0496 19.7458 18.17 19.8042C17.57 20.1927 16.9148 20.4902 16.2056 20.6943C15.4952 20.8985 14.7596 21 14 21ZM7.4 17.4708C7.0196 16.8875 6.7256 16.2505 6.5156 15.561C6.3056 14.8703 6.2 14.1552 6.2 13.4167V9.91667C6.2 9.5865 6.08482 9.30883 5.85562 9.08599C5.62522 8.86199 5.3396 8.75 5 8.75C4.6604 8.75 4.37479 8.86199 4.14559 9.08599C3.91519 9.30883 3.8 9.5865 3.8 9.91667V10.5C3.8 12.6385 4.16959 14.2333 4.90999 15.2833C5.65039 16.3333 6.4796 17.0625 7.4 17.4708ZM10.4 13.125C10.8404 13.0083 11.2196 12.8672 11.54 12.7027C11.8604 12.537 12.1604 12.376 12.44 12.2208C12.7196 12.0657 12.9752 11.9338 13.2056 11.8277C13.4348 11.7203 13.7 11.6667 14 11.6667C14.3 11.6667 14.5652 11.7203 14.7956 11.8277C15.0248 11.9338 15.2804 12.0657 15.56 12.2208C15.8396 12.376 16.1348 12.537 16.4456 12.7027C16.7552 12.8672 17.1404 13.0083 17.6 13.125V11.9C17.3 11.8032 17.0396 11.6958 16.82 11.5792L16.16 11.2292C15.8396 11.0343 15.5156 10.8652 15.1856 10.7193C14.8556 10.5735 14.4596 10.5 14 10.5C13.5404 10.5 13.1456 10.5735 12.8156 10.7193C12.4856 10.8652 12.1496 11.0343 11.81 11.2292L11.15 11.5792C10.9304 11.6958 10.6796 11.8032 10.4 11.9V13.125ZM20.6 17.4708C21.5204 17.0625 22.3496 16.3333 23.09 15.2833C23.8304 14.2333 24.2 12.6385 24.2 10.5V9.91667C24.2 9.5865 24.0848 9.30883 23.8556 9.08599C23.6252 8.86199 23.3396 8.75 23 8.75C22.6604 8.75 22.3748 8.86199 22.1456 9.08599C21.9152 9.30883 21.8 9.5865 21.8 9.91667V13.4167C21.8 14.1552 21.7004 14.8703 21.5 15.561C21.2996 16.2505 20.9996 16.8875 20.6 17.4708Z" fill="#2048A8"/>
</svg>
