<svg width="28" height="28" viewBox="0 0 28 28" fill="none" xmlns="http://www.w3.org/2000/svg">
<path d="M13.9416 20.9999C14.3499 20.9999 14.695 20.859 14.977 20.577C15.259 20.295 15.3999 19.9499 15.3999 19.5416C15.3999 19.1333 15.259 18.7882 14.977 18.5062C14.695 18.2242 14.3499 18.0833 13.9416 18.0833C13.5333 18.0833 13.1882 18.2242 12.9062 18.5062C12.6242 18.7882 12.4833 19.1333 12.4833 19.5416C12.4833 19.9499 12.6242 20.295 12.9062 20.577C13.1882 20.859 13.5333 20.9999 13.9416 20.9999ZM12.8916 16.5083H15.0499C15.0499 15.8666 15.1228 15.3611 15.2687 14.9916C15.4145 14.6221 15.8277 14.1166 16.5083 13.4749C17.0138 12.9694 17.4124 12.4882 17.7041 12.0312C17.9958 11.5742 18.1416 11.0249 18.1416 10.3833C18.1416 9.29437 17.7429 8.45825 16.9458 7.87492C16.1486 7.29159 15.2054 6.99992 14.1166 6.99992C13.0083 6.99992 12.109 7.29159 11.4187 7.87492C10.7284 8.45825 10.2471 9.15825 9.97492 9.97492L11.8999 10.7333C11.9971 10.3833 12.2159 10.0041 12.5562 9.59575C12.8965 9.18742 13.4166 8.98325 14.1166 8.98325C14.7388 8.98325 15.2054 9.15339 15.5166 9.49367C15.8277 9.83395 15.9833 10.2083 15.9833 10.6166C15.9833 11.0055 15.8666 11.3701 15.6333 11.7103C15.3999 12.0507 15.1083 12.3666 14.7583 12.6583C13.9027 13.4166 13.3777 13.9902 13.1833 14.3791C12.9888 14.7679 12.8916 15.4777 12.8916 16.5083ZM13.9999 25.6666C12.3861 25.6666 10.8694 25.3603 9.44992 24.7478C8.03047 24.1353 6.79575 23.3041 5.74575 22.2541C4.69575 21.2041 3.8645 19.9694 3.252 18.5499C2.6395 17.1304 2.33325 15.6138 2.33325 13.9999C2.33325 12.3861 2.6395 10.8694 3.252 9.44992C3.8645 8.03047 4.69575 6.79575 5.74575 5.74575C6.79575 4.69575 8.03047 3.8645 9.44992 3.252C10.8694 2.6395 12.3861 2.33325 13.9999 2.33325C15.6138 2.33325 17.1304 2.6395 18.5499 3.252C19.9694 3.8645 21.2041 4.69575 22.2541 5.74575C23.3041 6.79575 24.1353 8.03047 24.7478 9.44992C25.3603 10.8694 25.6666 12.3861 25.6666 13.9999C25.6666 15.6138 25.3603 17.1304 24.7478 18.5499C24.1353 19.9694 23.3041 21.2041 22.2541 22.2541C21.2041 23.3041 19.9694 24.1353 18.5499 24.7478C17.1304 25.3603 15.6138 25.6666 13.9999 25.6666ZM13.9999 23.3333C16.6054 23.3333 18.8124 22.4291 20.6208 20.6208C22.4291 18.8124 23.3333 16.6054 23.3333 13.9999C23.3333 11.3944 22.4291 9.18742 20.6208 7.37909C18.8124 5.57075 16.6054 4.66659 13.9999 4.66659C11.3944 4.66659 9.18742 5.57075 7.37909 7.37909C5.57075 9.18742 4.66659 11.3944 4.66659 13.9999C4.66659 16.6054 5.57075 18.8124 7.37909 20.6208C9.18742 22.4291 11.3944 23.3333 13.9999 23.3333Z" fill="#A8B6DB"/>
</svg>
