<svg width="28" height="28" viewBox="0 0 28 28" fill="none" xmlns="http://www.w3.org/2000/svg">
<path d="M20.603 13.0667C20.3346 12.7167 20.008 12.4133 19.7046 12.11C18.923 11.41 18.0363 10.9083 17.2896 10.1733C15.5513 8.47 15.1663 5.65833 16.2746 3.5C15.1663 3.76833 14.198 4.375 13.3696 5.04C10.3479 7.46667 9.1579 11.7483 10.5812 15.4233C10.6279 15.54 10.6746 15.6567 10.6746 15.8083C10.6746 16.065 10.4996 16.2983 10.2662 16.3917C9.9979 16.5083 9.7179 16.4383 9.49624 16.2517C9.43003 16.1962 9.37465 16.1289 9.3329 16.0533C8.01457 14.385 7.80457 11.9933 8.69124 10.08C6.7429 11.6667 5.68124 14.35 5.8329 16.8817C5.9029 17.465 5.9729 18.0483 6.17124 18.6317C6.33457 19.3317 6.64957 20.0317 6.99957 20.65C8.25957 22.6683 10.4412 24.115 12.7863 24.4067C15.283 24.7217 17.9546 24.2667 19.868 22.54C22.003 20.6033 22.7496 17.5 21.653 14.84L21.5013 14.5367C21.2563 14 20.603 13.0667 20.603 13.0667ZM16.9163 20.4167C16.5896 20.6967 16.053 21 15.633 21.1167C14.3263 21.5833 13.0196 20.93 12.2496 20.16C13.638 19.8333 14.4663 18.8067 14.7113 17.7683C14.9096 16.835 14.5363 16.065 14.3846 15.1667C14.2446 14.3033 14.268 13.5683 14.583 12.7633C14.8046 13.2067 15.038 13.65 15.318 14C16.2163 15.1667 17.628 15.68 17.9313 17.2667C17.978 17.43 18.0013 17.5933 18.0013 17.7683C18.0363 18.725 17.6163 19.775 16.9163 20.4167Z" fill="#1F3FD0"/>
</svg>
