<svg width="34" height="35" viewBox="0 0 34 35" fill="none" xmlns="http://www.w3.org/2000/svg">
<rect y="0.786133" width="34" height="34" rx="10" fill="#0358FF" fill-opacity="0.3"/>
<path d="M9.02355 17.0332C8.67913 17.4708 8.70144 18.0976 9.07808 18.5289C9.2284 18.7032 9.38865 18.8088 9.61227 18.8855C9.77051 18.9379 10.0504 18.9446 12.7924 18.9578L15.7971 18.9743L15.8154 22.0116C15.8362 25.1948 15.8362 25.188 15.987 25.4618C16.0807 25.6306 16.3189 25.8654 16.4928 25.9573C16.8337 26.1377 17.2046 26.1329 17.5297 25.9424C17.6855 25.8522 17.9741 25.5636 18.0591 25.4165C18.219 25.1392 18.2175 25.1821 18.2001 21.992L18.1836 18.9873L21.2038 19.0021C24.3921 19.0178 24.32 19.0209 24.6042 18.8645C24.7754 18.7727 25.0537 18.4943 25.1455 18.3266C25.392 17.8798 25.3084 17.3523 24.9304 16.9742C24.7439 16.7878 24.5493 16.6785 24.3293 16.6327C24.2451 16.6168 22.8268 16.5987 21.1751 16.5931L18.1739 16.587L18.1523 13.5737C18.1333 10.7236 18.129 10.5553 18.068 10.4021C17.8818 9.93241 17.4319 9.61919 16.9495 9.62171C16.5752 9.62309 16.344 9.72656 16.0812 10.0136C15.8832 10.2322 15.8085 10.3864 15.7738 10.642C15.7606 10.7381 15.7579 12.115 15.7682 13.6998L15.784 16.5843L12.7931 16.5748C10.6692 16.5683 9.76276 16.5771 9.66162 16.6057C9.41303 16.6713 9.19065 16.8212 9.02355 17.0332Z" fill="#0358FF"/>
</svg>
