<svg width="31" height="31" viewBox="0 0 31 31" fill="none" xmlns="http://www.w3.org/2000/svg">
<g clip-path="url(#clip0_9_596)">
<path d="M6.21265 2.51752C6.32397 3.9765 7.23218 5.31244 8.57983 5.99213L9.0603 6.23822L8.70874 6.44916C6.31812 7.90228 4.44897 10.1523 3.49976 12.707L3.30054 13.246L3.03687 13.3105C2.05835 13.5507 1.03296 14.3828 0.581787 15.3027C0.447021 15.5781 0.294678 15.9589 0.247803 16.1523C0.130615 16.6093 0.130615 17.6347 0.247803 18.0859C0.599365 19.4335 1.64233 20.5058 2.98413 20.8984L3.31226 20.9921L3.49976 21.5253C3.88062 22.5917 4.68335 23.9921 5.47437 24.9706C5.94312 25.5507 6.98022 26.5527 7.5896 27.0156C10.6658 29.3476 14.615 30.1328 18.3591 29.1542C21.2771 28.3984 23.949 26.4589 25.6248 23.8867C26.0701 23.2011 26.5798 22.1933 26.8201 21.5253L27.0076 20.9921L27.3357 20.8984C28.6775 20.5058 29.7322 19.4218 30.072 18.0859C30.1892 17.6347 30.1892 16.6035 30.072 16.1523C29.8025 15.08 29.0115 14.0898 28.0505 13.621C27.7751 13.4863 27.4353 13.3456 27.283 13.3105L27.0193 13.246L26.8201 12.707C25.6306 9.50189 23.0291 6.8476 19.8181 5.55853C18.3064 4.94916 17.1169 4.72064 15.0896 4.64447L13.9353 4.5976L13.5017 4.38666C12.7224 3.99994 12.1423 3.19721 12.072 2.41205L12.0369 2.06049H11.1287H10.2205L10.2556 2.54096C10.2966 3.11518 10.4548 3.6308 10.7712 4.2226L11.0056 4.65619L10.4431 4.62689C9.95093 4.5976 9.83374 4.5683 9.45288 4.38666C8.67944 3.99994 8.11694 3.2265 8.03491 2.42377L7.9939 2.06049H7.08569H6.17749L6.21265 2.51752ZM16.0623 6.62494C18.0603 7.32807 18.6521 9.83002 17.1638 11.3124C16.0564 12.4257 14.2693 12.4316 13.1619 11.3183C12.6873 10.8437 12.4236 10.2871 12.3181 9.54291L12.283 9.26752H11.3748H10.4607L10.5017 9.6601C10.6716 11.4003 11.6677 12.8359 13.1853 13.5449C14.3806 14.1074 15.9392 14.1074 17.1345 13.5449C19.2732 12.5488 20.3337 10.0703 19.5837 7.83197C19.5076 7.60932 19.4548 7.4101 19.4666 7.40424C19.5076 7.36322 20.5505 7.93158 21.031 8.25385C23.2166 9.72455 24.7634 11.8749 25.4548 14.4121L25.613 14.998L26.2048 15.0214C26.6794 15.039 26.8494 15.0742 27.113 15.1972C27.5701 15.4081 27.8806 15.7011 28.1091 16.1347C28.2791 16.4511 28.3142 16.5742 28.3318 17.0019C28.3611 17.6288 28.2205 18.0331 27.8337 18.4726C27.3416 19.0117 26.8376 19.2285 26.0583 19.2285H25.613L25.4021 19.9726C24.4353 23.3828 21.863 26.0781 18.5173 27.1972C16.2908 27.9355 14.0349 27.9355 11.8201 27.2031C8.45679 26.0839 5.88452 23.3886 4.91772 19.9843L4.70679 19.2402L4.15015 19.2167C3.40601 19.1874 2.98413 18.9999 2.53882 18.5195C2.09937 18.0449 1.95874 17.6581 1.98804 17.0019C2.00562 16.5742 2.04077 16.4511 2.21069 16.1347C2.43921 15.7011 2.74976 15.4081 3.20679 15.1972C3.47046 15.0742 3.64038 15.039 4.11499 15.0214L4.70679 14.998L4.87085 14.4003C5.72046 11.3183 7.79468 8.83978 10.6599 7.48041C12.4587 6.6308 14.949 6.23236 16.0623 6.62494Z" fill="white"/>
<path d="M9.40601 14.6347C9.21851 14.6757 8.9314 14.7812 8.76147 14.8691C8.34546 15.08 7.77124 15.6425 7.54858 16.0585C7.36694 16.3984 7.19116 17.0078 7.19116 17.3066V17.4706H8.08765H8.98413L9.05444 17.2128C9.23022 16.539 9.94507 16.1874 10.5603 16.4687C10.865 16.6035 11.0994 16.8847 11.1814 17.2128L11.2458 17.4706H12.1541H13.0623L13.0212 17.1308C12.8044 15.373 11.1287 14.2128 9.40601 14.6347Z" fill="white"/>
<path d="M19.5134 14.623C18.3357 14.9101 17.4451 15.9179 17.2986 17.1308L17.2576 17.4706H18.1658H19.074L19.1384 17.2128C19.2205 16.8847 19.4548 16.6035 19.7595 16.4687C20.3748 16.1874 21.0896 16.539 21.2654 17.2128L21.3357 17.4706H22.2322H23.1287V17.3066C23.1287 17.0312 22.9587 16.4277 22.8005 16.1113C22.5896 15.6953 22.0271 15.121 21.6111 14.8984C20.99 14.5703 20.1873 14.4648 19.5134 14.623Z" fill="white"/>
<path d="M11.6267 21.4902L10.8767 21.9297L10.9822 22.1054C11.5271 23.0371 12.74 23.916 13.9294 24.2441C14.5212 24.4082 15.8572 24.3964 16.4666 24.2207C17.6267 23.8867 18.7986 23.0254 19.3376 22.1054L19.4431 21.9297L18.7283 21.5078C18.3298 21.2793 17.9666 21.0742 17.9197 21.0625C17.8611 21.0507 17.7849 21.1035 17.7263 21.2089C17.5564 21.4902 16.906 22.0586 16.5544 22.2285C15.3474 22.8203 14.0349 22.6269 13.0681 21.7246C12.863 21.5371 12.6521 21.3027 12.5994 21.2148C12.5408 21.1211 12.4705 21.0449 12.4353 21.0449C12.406 21.0449 12.0369 21.2441 11.6267 21.4902Z" fill="white"/>
</g>
<defs>
<clipPath id="clip0_9_596">
<rect width="30" height="30" fill="white" transform="translate(0.159912 0.830017)"/>
</clipPath>
</defs>
</svg>
