<svg width="34" height="35" viewBox="0 0 34 35" fill="none" xmlns="http://www.w3.org/2000/svg">
<rect y="0.786133" width="34" height="34" rx="10" fill="#0358FF" fill-opacity="0.3"/>
<path d="M15.3545 10.1045C15.2491 10.1326 15.0838 10.2135 14.9854 10.2803C14.8834 10.3471 13.319 11.8834 11.5084 13.6975C7.73618 17.4732 8.01743 17.1428 8.01743 17.7861C8.01743 18.1061 8.02798 18.1799 8.10181 18.3311C8.17212 18.4682 8.89634 19.217 11.5471 21.8748C13.3963 23.7275 14.9749 25.285 15.0557 25.3342C15.2385 25.4432 15.5233 25.5205 15.7377 25.5205C16.0788 25.5205 16.5463 25.299 16.7397 25.0424C16.9366 24.7857 17.0385 24.3146 16.9647 23.9947C16.8733 23.5939 16.8452 23.5623 14.8096 21.5057C12.8233 19.5053 12.6475 19.3471 12.2151 19.1678C12.0639 19.108 12.2467 19.1045 18.5467 19.0869L25.0331 19.0693L25.2334 18.9744C25.5006 18.8514 25.7186 18.6404 25.8627 18.3768C25.9788 18.1658 25.9823 18.1377 25.9823 17.7861C25.9823 17.4521 25.9717 17.3994 25.8838 17.2236C25.7045 16.8756 25.4092 16.633 25.0436 16.5346C24.8854 16.4924 23.8377 16.4854 18.4764 16.4854H12.0956L12.3065 16.3834C12.4225 16.3307 12.6124 16.2111 12.7284 16.1232C12.8444 16.0354 13.7971 15.1037 14.8413 14.0525C16.2967 12.5936 16.7678 12.1014 16.8346 11.9678C17.1756 11.2822 16.9331 10.5123 16.2721 10.1854C16.0014 10.0518 15.6499 10.0201 15.3545 10.1045Z" fill="#0358FF"/>
</svg>
