<svg width="28" height="28" viewBox="0 0 28 28" fill="none" xmlns="http://www.w3.org/2000/svg">
<path d="M14.0001 25.6666C12.3862 25.6666 11.0105 25.0978 9.873 23.9603C8.7355 22.8228 8.16675 21.4471 8.16675 19.8333C8.16675 18.8999 8.37091 18.0298 8.77925 17.2228C9.18758 16.4159 9.7612 15.7304 10.5001 15.1666V5.83325C10.5001 4.86103 10.8404 4.03464 11.5209 3.35409C12.2014 2.67353 13.0279 2.33325 14.0001 2.33325C14.9723 2.33325 15.7987 2.67353 16.4792 3.35409C17.1598 4.03464 17.5001 4.86103 17.5001 5.83325V15.1666C18.2389 15.7304 18.8126 16.4159 19.2209 17.2228C19.6292 18.0298 19.8334 18.8999 19.8334 19.8333C19.8334 21.4471 19.2647 22.8228 18.1272 23.9603C16.9897 25.0978 15.6139 25.6666 14.0001 25.6666ZM12.8334 12.8333H15.1667V11.6666H14.0001V10.4999H15.1667V8.16658H14.0001V6.99992H15.1667V5.83325C15.1667 5.5027 15.055 5.22562 14.8313 5.002C14.6077 4.77839 14.3306 4.66659 14.0001 4.66659C13.6696 4.66659 13.3925 4.77839 13.1688 5.002C12.9452 5.22562 12.8334 5.5027 12.8334 5.83325V12.8333Z" fill="#1F3FD0"/>
</svg>
