<svg width="28" height="28" viewBox="0 0 28 28" fill="none" xmlns="http://www.w3.org/2000/svg">
<path d="M9.33333 21H11.0833V18.6667H13.4167V16.9167H11.0833V14.5833H9.33333V16.9167H7V18.6667H9.33333V21ZM15.1667 20.125H21V18.375H15.1667V20.125ZM15.1667 17.2083H21V15.4583H15.1667V17.2083ZM7.29167 10.7333H13.125V8.98333H7.29167V10.7333ZM5.83333 24.5C5.19167 24.5 4.64237 24.2716 4.18542 23.8146C3.72847 23.3576 3.5 22.8083 3.5 22.1667V5.83333C3.5 5.19167 3.72847 4.64237 4.18542 4.18542C4.64237 3.72847 5.19167 3.5 5.83333 3.5H22.1667C22.8083 3.5 23.3576 3.72847 23.8146 4.18542C24.2716 4.64237 24.5 5.19167 24.5 5.83333V22.1667C24.5 22.8083 24.2716 23.3576 23.8146 23.8146C23.3576 24.2716 22.8083 24.5 22.1667 24.5H5.83333ZM16.45 12.775L18.0833 11.1417L19.7167 12.775L20.9417 11.55L19.3083 9.85833L20.9417 8.225L19.7167 7L18.0833 8.63333L16.45 7L15.225 8.225L16.8583 9.85833L15.225 11.55L16.45 12.775Z" fill="#0358FF"/>
</svg>
