<svg width="34" height="35" viewBox="0 0 34 35" fill="none" xmlns="http://www.w3.org/2000/svg">
<rect y="0.786133" width="34" height="34" rx="10" fill="#0358FF" fill-opacity="0.3"/>
<path d="M11.8925 11.6134C11.3394 11.6794 10.912 12.1384 10.8734 12.7096C10.8565 12.9391 10.8951 13.1271 10.999 13.3395C11.0738 13.4885 11.267 13.6911 13.1965 15.6393L15.3095 17.7756L13.1748 19.9362C10.9386 22.2019 10.9434 22.197 10.8565 22.4973C10.8033 22.6828 10.8058 23.0173 10.8637 23.2053C10.9772 23.574 11.2429 23.8328 11.6075 23.928C11.7814 23.9744 12.1895 23.9744 12.3537 23.9304C12.6628 23.8474 12.6314 23.8767 14.8748 21.6086L16.9878 19.4724L19.1129 21.6184C21.3563 23.884 21.3032 23.8352 21.6147 23.9255C21.8007 23.9817 22.1943 23.9817 22.3778 23.928C22.8681 23.7864 23.182 23.3542 23.182 22.8196C23.182 22.5559 23.1216 22.341 22.9985 22.1531C22.9502 22.0823 21.9601 21.0666 20.7961 19.8947L18.6783 17.7683L20.7937 15.6223C22.7956 13.5934 22.9115 13.4714 22.9767 13.32C23.1772 12.8561 23.0806 12.3166 22.7377 11.9772C22.472 11.7135 22.2354 11.6232 21.8466 11.6403C21.552 11.655 21.3902 11.7111 21.1849 11.8674C21.1076 11.926 20.132 12.8976 19.0188 14.0256L16.9903 16.0764L14.8821 13.9548C13.3848 12.4484 12.7377 11.8136 12.6459 11.7624C12.4237 11.633 12.1605 11.5817 11.8925 11.6134Z" fill="#0358FF"/>
</svg>
