<svg width="23" height="26" viewBox="0 0 23 26" fill="none" xmlns="http://www.w3.org/2000/svg">
<path d="M2.66659 25.8337C2.02492 25.8337 1.47562 25.6052 1.01867 25.1482C0.56172 24.6913 0.333252 24.142 0.333252 23.5003V7.16699H2.66659V23.5003H15.4999V25.8337H2.66659ZM7.33325 21.167C6.69159 21.167 6.14228 20.9386 5.68534 20.4816C5.22839 20.0246 4.99992 19.4753 4.99992 18.8337V2.50033C4.99992 1.85866 5.22839 1.30936 5.68534 0.852409C6.14228 0.395461 6.69159 0.166992 7.33325 0.166992H15.4999L22.4999 7.16699V18.8337C22.4999 19.4753 22.2715 20.0246 21.8145 20.4816C21.3575 20.9386 20.8083 21.167 20.1666 21.167H7.33325ZM14.3333 8.33366H20.1666L14.3333 2.50033V8.33366Z" fill="#2048A8"/>
</svg>
