<svg width="46" height="46" viewBox="0 0 46 46" fill="none" xmlns="http://www.w3.org/2000/svg">
<rect width="46" height="46" rx="10" fill="#FFEEDA"/>
<path d="M22.0485 12.5798C21.5469 13.4516 21.0922 14.2485 21.0407 14.3516C20.7922 14.8485 20.736 15.3688 20.8719 15.9126C21.1438 16.986 22.1985 17.6891 23.3 17.5298C24.6782 17.3329 25.5172 15.9594 25.0719 14.6376C24.9875 14.3891 23.0563 11.0001 22.9954 11.0001C22.9766 11.0001 22.55 11.7126 22.0485 12.5798Z" fill="#FC8E03"/>
<path d="M21.8754 19.6954V20.7923L18.8425 20.8063C16.0535 20.8204 15.7863 20.8298 15.5472 20.9095C14.8769 21.1345 14.3144 21.5048 13.916 21.9829C13.6394 22.3157 13.4707 22.6298 13.316 23.0704C13.1847 23.436 13.1847 23.4735 13.166 24.6688C13.1472 26.0141 13.1754 26.2813 13.3863 26.7313C13.5457 27.0735 13.9535 27.4954 14.2816 27.6641C14.7879 27.922 15.3972 27.9876 15.88 27.847C16.4238 27.6829 16.555 27.5845 17.8769 26.2673L19.1566 24.997L20.4129 26.2485C21.5707 27.397 21.7019 27.5095 22.0207 27.6595C22.2269 27.7579 22.4988 27.8423 22.6816 27.8704C23.1269 27.9313 23.5535 27.861 23.98 27.6595C24.2988 27.5095 24.43 27.397 25.5879 26.2485L26.8441 24.997L28.1238 26.272C29.5441 27.6829 29.6847 27.7813 30.3597 27.8891C31.4847 28.0626 32.591 27.2938 32.7972 26.1923C32.8207 26.0563 32.8441 25.4563 32.8441 24.8657C32.8441 23.5813 32.7925 23.2673 32.4832 22.6251C32.305 22.2548 32.2066 22.1188 31.8644 21.7766C31.5222 21.4345 31.3863 21.336 31.016 21.1579C30.2707 20.797 30.2472 20.797 26.9847 20.797H24.1254V19.6954V18.5938H23.0004H21.8754V19.6954Z" fill="#FC8E03"/>
<path d="M18.3124 28.0344C17.4781 28.8547 17.1546 29.0891 16.5452 29.3047C15.5234 29.6609 14.3327 29.5391 13.4327 28.9906C13.3156 28.9203 13.2031 28.8594 13.1843 28.8594C13.1281 28.8594 13.1515 34.0625 13.2124 34.2547C13.2827 34.4984 13.5546 34.8031 13.7843 34.9109C13.9671 34.9953 14.3374 35 22.9906 35C30.4484 35 32.0281 34.9906 32.1546 34.9391C32.3749 34.8453 32.5999 34.6391 32.7171 34.4187C32.8202 34.2266 32.8202 34.2078 32.8343 31.5406C32.839 30.0687 32.839 28.8594 32.8296 28.8594C32.8202 28.8594 32.6093 28.9625 32.3656 29.0844C31.8312 29.3609 31.4234 29.4688 30.8281 29.5016C30.064 29.5437 29.2718 29.3234 28.6015 28.8828C28.4468 28.7797 27.9921 28.3719 27.589 27.9828C27.1859 27.5891 26.839 27.2656 26.8202 27.2656C26.7968 27.2656 26.4406 27.5984 26.0281 28.0062C25.1843 28.8406 24.889 29.0422 24.1718 29.2906C23.7452 29.4359 23.6937 29.4406 23.0234 29.4453C22.4281 29.4453 22.264 29.4266 21.9546 29.3375C21.1765 29.1125 20.6702 28.7656 19.7187 27.8094C19.4234 27.5094 19.1609 27.2656 19.1327 27.2656C19.1093 27.2656 18.739 27.6125 18.3124 28.0344Z" fill="#FC8E03"/>
</svg>
