<svg width="22" height="24" viewBox="0 0 22 24" fill="none" xmlns="http://www.w3.org/2000/svg">
<path d="M13.9167 18.9999C13.1 18.9999 11.5833 18.9999 11 18.9999C11 18.4166 11 16.8999 11 16.0833C11 15.2666 11 14.3333 11 13.1666C11.5833 13.1666 13.1 13.1666 13.9167 13.1666C14.7333 13.1666 15.9875 13.1666 16.8333 13.1666C16.8333 13.7499 16.8333 15.2666 16.8333 16.0833C16.8333 16.8999 16.8333 18.4166 16.8333 18.9999C16.25 18.9999 14.7333 18.9999 13.9167 18.9999ZM2.83333 23.6666C2.19167 23.6666 1.64237 23.4382 1.18542 22.9812C0.728468 22.5242 0.5 21.9749 0.5 21.3333V4.99992C0.5 4.35825 0.728468 3.80895 1.18542 3.352C1.64237 2.89505 2.19167 2.66659 2.83333 2.66659H4V0.333252H6.33333V2.66659H15.6667V0.333252H18V2.66659H19.1667C19.8083 2.66659 20.3576 2.89505 20.8146 3.352C21.2716 3.80895 21.5 4.35825 21.5 4.99992V21.3333C21.5 21.9749 21.2716 22.5242 20.8146 22.9812C20.3576 23.4382 19.8083 23.6666 19.1667 23.6666H2.83333ZM2.83333 21.3333H19.1667V9.66659H2.83333V21.3333Z" fill="#1F3FD0"/>
</svg>
