<svg width="24" height="6" viewBox="0 0 24 6" fill="none" xmlns="http://www.w3.org/2000/svg">
<path d="M3 6C2.175 6 1.46876 5.7063 0.88125 5.11875C0.293745 4.5312 0 3.825 0 3C0 2.175 0.293745 1.4688 0.88125 0.881249C1.46876 0.293699 2.175 0 3 0C3.825 0 4.53124 0.293699 5.11875 0.881249C5.70625 1.4688 6 2.175 6 3C6 3.825 5.70625 4.5312 5.11875 5.11875C4.53124 5.7063 3.825 6 3 6ZM12 6C11.175 6 10.4688 5.7063 9.88125 5.11875C9.2937 4.5312 9 3.825 9 3C9 2.175 9.2937 1.4688 9.88125 0.881249C10.4688 0.293699 11.175 0 12 0C12.825 0 13.5312 0.293699 14.1188 0.881249C14.7063 1.4688 15 2.175 15 3C15 3.825 14.7063 4.5312 14.1188 5.11875C13.5312 5.7063 12.825 6 12 6ZM21 6C20.175 6 19.4688 5.7063 18.8812 5.11875C18.2937 4.5312 18 3.825 18 3C18 2.175 18.2937 1.4688 18.8812 0.881249C19.4688 0.293699 20.175 0 21 0C21.825 0 22.5312 0.293699 23.1188 0.881249C23.7063 1.4688 24 2.175 24 3C24 3.825 23.7063 4.5312 23.1188 5.11875C22.5312 5.7063 21.825 6 21 6Z" fill="#A7B6DD"/>
</svg>
