<svg width="26" height="16" viewBox="0 0 26 16" fill="none" xmlns="http://www.w3.org/2000/svg">
<path d="M13 16C12.1767 16 11.3805 15.8833 10.6112 15.65C9.84208 15.4167 9.1325 15.0777 8.4825 14.6333C7.52917 14.5667 6.55417 14.3556 5.5575 14C4.56083 13.6444 3.65083 13.0556 2.8275 12.2333C2.00417 11.4111 1.32708 10.3333 0.79625 9C0.265421 7.66667 0 6 0 4V3.33333C0 2.4 0.314171 1.61111 0.9425 0.966667C1.57083 0.322227 2.34 0 3.25 0C4.095 0 4.82625 0.3 5.44375 0.9C6.06125 1.5 6.4025 2.22223 6.4675 3.06667C7.07417 2.88889 7.61583 2.66667 8.0925 2.4C8.56917 2.13333 9.05667 1.87777 9.555 1.63333C10.0533 1.36667 10.5733 1.13889 11.115 0.95C11.6567 0.761107 12.285 0.666667 13 0.666667C13.7367 0.666667 14.3705 0.761107 14.9012 0.95C15.432 1.13889 15.9467 1.36667 16.445 1.63333C16.9217 1.87777 17.4037 2.13333 17.8912 2.4C18.3787 2.66667 18.9258 2.88889 19.5325 3.06667C19.5975 2.2 19.9387 1.47223 20.5562 0.883333C21.1737 0.29444 21.905 0 22.75 0C23.66 0 24.4292 0.322227 25.0575 0.966667C25.6858 1.61111 26 2.4 26 3.33333V4C26 6 25.7345 7.66667 25.2038 9C24.673 10.3333 23.9958 11.4111 23.1725 12.2333C22.3492 13.0556 21.4392 13.6444 20.4425 14C19.4458 14.3556 18.4708 14.5667 17.5175 14.6333C16.8675 15.0777 16.158 15.4167 15.3887 15.65C14.6195 15.8833 13.8233 16 13 16ZM5.85 11.9667C5.43833 11.3 5.11875 10.5723 4.89125 9.78333C4.66375 8.9944 4.55 8.17773 4.55 7.33333V3.33333C4.55 2.95556 4.42542 2.63889 4.17625 2.38333C3.92708 2.12777 3.61833 2 3.25 2C2.88167 2 2.57292 2.12777 2.32375 2.38333C2.07458 2.63889 1.95 2.95556 1.95 3.33333V4C1.95 6.4444 2.35083 8.26667 3.1525 9.46667C3.95417 10.6667 4.85333 11.5 5.85 11.9667ZM9.1 7C9.57667 6.86667 9.98833 6.7056 10.335 6.51667C10.6817 6.32773 11.0067 6.1444 11.31 5.96667C11.6133 5.78893 11.8895 5.63893 12.1387 5.51667C12.388 5.3944 12.675 5.33333 13 5.33333C13.325 5.33333 13.612 5.3944 13.8612 5.51667C14.1105 5.63893 14.3867 5.78893 14.69 5.96667C14.9933 6.1444 15.313 6.32773 15.6488 6.51667C15.9845 6.7056 16.4017 6.86667 16.9 7V5.6C16.575 5.48893 16.2933 5.36667 16.055 5.23333L15.34 4.83333C14.9933 4.61111 14.6412 4.41667 14.2837 4.25C13.9262 4.08333 13.4983 4 13 4C12.5017 4 12.0737 4.08333 11.7162 4.25C11.3587 4.41667 10.9958 4.61111 10.6275 4.83333L9.9125 5.23333C9.67417 5.36667 9.40333 5.48893 9.1 5.6V7ZM20.15 11.9667C21.1467 11.5 22.0458 10.6667 22.8475 9.46667C23.6492 8.26667 24.05 6.4444 24.05 4V3.33333C24.05 2.95556 23.9255 2.63889 23.6762 2.38333C23.427 2.12777 23.1183 2 22.75 2C22.3817 2 22.073 2.12777 21.8237 2.38333C21.5745 2.63889 21.45 2.95556 21.45 3.33333V7.33333C21.45 8.17773 21.3417 8.9944 21.125 9.78333C20.9083 10.5723 20.5833 11.3 20.15 11.9667Z" fill="#A7B6DD"/>
</svg>
