<svg width="27" height="27" viewBox="0 0 27 27" fill="none" xmlns="http://www.w3.org/2000/svg">
<rect width="27" height="27" rx="13.5" fill="#FF7A01"/>
<path d="M7.89375 10.3702C7.59583 10.8596 7.37239 11.3619 7.22344 11.877C7.07448 12.3922 7 12.9202 7 13.4611C7 15.1869 7.62969 16.6551 8.88906 17.8657C10.1484 19.0763 11.6854 19.6816 13.5 19.6816H13.6422L12.3422 20.9179L13.4797 21.9998L16.7297 18.9088L13.4797 15.8179L12.3422 16.8998L13.6422 18.1361H13.5C12.1458 18.1361 10.9948 17.6821 10.0469 16.7742C9.09896 15.8662 8.625 14.7619 8.625 13.4611C8.625 13.1263 8.66563 12.7979 8.74688 12.4759C8.82813 12.1539 8.95 11.8384 9.1125 11.5293L7.89375 10.3702ZM13.5203 4.99976L10.2703 8.09067L13.5203 11.1816L14.6578 10.0998L13.3578 8.86339H13.5C14.8542 8.86339 16.0052 9.31737 16.9531 10.2253C17.9011 11.1333 18.375 12.2377 18.375 13.5384C18.375 13.8732 18.3344 14.2016 18.2531 14.5236C18.1719 14.8456 18.05 15.1611 17.8875 15.4702L19.1062 16.6293C19.4042 16.1399 19.6276 15.6376 19.7766 15.1225C19.9255 14.6073 20 14.0793 20 13.5384C20 11.8127 19.3703 10.3445 18.1109 9.13385C16.8516 7.92322 15.3146 7.31794 13.5 7.31794H13.3578L14.6578 6.08157L13.5203 4.99976Z" fill="white"/>
</svg>
