<svg width="31" height="31" viewBox="0 0 31 31" fill="none" xmlns="http://www.w3.org/2000/svg">
<path d="M10.6637 3C8.65199 3 7 4.612 7 6.575V25.425C7 27.388 8.65199 29 10.6637 29H19.3233C21.335 29 22.987 27.388 22.987 25.425V22.9849C23.0043 22.8809 23.0043 22.773 22.987 22.669V18.4349C23.0043 18.3309 23.0043 18.223 22.987 18.119V13.8849C23.0043 13.7809 23.0043 13.673 22.987 13.569V9.33488C23.0043 9.23088 23.0043 9.12301 22.987 9.01901V6.575C22.987 4.612 21.335 3 19.3233 3H10.6637ZM10.6637 4.95H19.3233C20.2546 4.95 20.9886 5.6663 20.9886 6.575V8.2H16.6588C16.5269 8.1987 16.3951 8.22212 16.2725 8.27022C16.1486 8.31832 16.038 8.3898 15.9434 8.4808C15.8488 8.5718 15.7742 8.6797 15.7222 8.7993C15.6716 8.9176 15.645 9.0463 15.645 9.175C15.645 9.3037 15.6716 9.4324 15.7222 9.5507C15.7742 9.6703 15.8488 9.7782 15.9434 9.8692C16.038 9.9602 16.1486 10.0317 16.2725 10.0798C16.3951 10.1279 16.5269 10.1513 16.6588 10.15H20.9886V12.75H18.6572C18.5253 12.7487 18.3934 12.7721 18.2709 12.8202C18.147 12.8683 18.0364 12.9398 17.9418 13.0308C17.8472 13.1218 17.7726 13.2297 17.7206 13.3493C17.67 13.4676 17.6434 13.5963 17.6434 13.725C17.6434 13.8537 17.67 13.9824 17.7206 14.1007C17.7726 14.2203 17.8472 14.3282 17.9418 14.4192C18.0364 14.5102 18.147 14.5817 18.2709 14.6298C18.3934 14.6779 18.5253 14.7013 18.6572 14.7H20.9886V17.3H16.6588C16.5269 17.2987 16.3951 17.3221 16.2725 17.3702C16.1486 17.4183 16.038 17.4898 15.9434 17.5808C15.8488 17.6718 15.7742 17.7797 15.7222 17.8993C15.6716 18.0176 15.645 18.1463 15.645 18.275C15.645 18.4037 15.6716 18.5324 15.7222 18.6507C15.7742 18.7703 15.8488 18.8782 15.9434 18.9692C16.038 19.0602 16.1486 19.1317 16.2725 19.1798C16.3951 19.2279 16.5269 19.2513 16.6588 19.25H20.9886V21.85H18.6572C18.5253 21.8487 18.3934 21.8721 18.2709 21.9202C18.147 21.9683 18.0364 22.0398 17.9418 22.1308C17.8472 22.2218 17.7726 22.3297 17.7206 22.4493C17.67 22.5676 17.6434 22.6963 17.6434 22.825C17.6434 22.9537 17.67 23.0824 17.7206 23.2007C17.7726 23.3203 17.8472 23.4282 17.9418 23.5192C18.0364 23.6102 18.147 23.6817 18.2709 23.7298C18.3934 23.7779 18.5253 23.8013 18.6572 23.8H20.9886V25.425C20.9886 26.3337 20.2546 27.05 19.3233 27.05H10.6637C9.73245 27.05 8.99838 26.3337 8.99838 25.425V6.575C8.99838 5.6663 9.73245 4.95 10.6637 4.95Z" fill="white"/>
</svg>
