<svg width="35" height="35" viewBox="0 0 35 35" fill="none" xmlns="http://www.w3.org/2000/svg">
<rect width="35" height="35" rx="10" fill="#0358FF" fill-opacity="0.3"/>
<path d="M23.2271 9.9739C23.1808 9.99044 22.3111 10.837 21.2926 11.8555C19.669 13.4758 19.4242 13.704 19.3184 13.7238C19.249 13.737 19.1531 13.7337 19.1035 13.7139C19.0506 13.6974 18.3595 13.3733 17.5625 12.9996C16.7689 12.626 16.0513 12.3019 15.9686 12.282C15.714 12.2192 15.2742 12.2589 15.0262 12.368C14.8245 12.4573 14.6856 12.5863 12.9165 14.3488C11.8715 15.3871 10.9985 16.2767 10.9721 16.3263C10.9456 16.3759 10.9258 16.4751 10.9258 16.5511C10.9258 16.8785 11.2036 17.0901 11.5375 17.0141C11.6467 16.9876 11.9112 16.7396 13.5348 15.116C15.1783 13.4758 15.423 13.2476 15.5288 13.2278C15.5983 13.2146 15.6942 13.2179 15.7438 13.2377C15.7967 13.2542 16.4845 13.575 17.2781 13.9487C18.0685 14.3223 18.7761 14.6431 18.8489 14.6629C19.1663 14.7522 19.6425 14.6861 19.9533 14.5108C20.1187 14.4182 23.7628 10.8072 23.8421 10.6584C23.8686 10.6088 23.8884 10.503 23.8884 10.4236C23.8884 10.0863 23.5412 9.85155 23.2271 9.9739Z" fill="#0358FF"/>
<path d="M22.4997 14.0777C22.3641 14.1471 22.2484 14.2397 22.179 14.329C21.9574 14.62 21.9673 14.3191 21.9773 19.5636C21.9872 23.9154 21.9905 24.3155 22.0434 24.4279C22.1228 24.6032 22.3476 24.8347 22.5262 24.9239C22.675 24.9967 22.718 25 23.4091 25C24.1333 25 24.1366 25 24.3052 24.9107C24.497 24.8082 24.6624 24.6329 24.7517 24.4412C24.8112 24.3122 24.8145 24.1006 24.8145 19.4942C24.8145 14.7291 24.8112 14.6828 24.745 14.534C24.6624 14.3521 24.4805 14.157 24.3019 14.0611C24.1796 13.995 24.1134 13.9884 23.4422 13.9785L22.7114 13.9685L22.4997 14.0777Z" fill="#0358FF"/>
<path d="M14.4905 17.3878C14.2293 17.5233 14.0507 17.7614 14.0011 18.0425C13.978 18.1649 13.9681 19.2759 13.9747 21.2501L13.9846 24.2725L14.0606 24.4378C14.1565 24.6462 14.302 24.7983 14.5137 24.9107C14.679 25 14.6823 25 15.4065 25C16.0315 25 16.1505 24.9901 16.2597 24.9405C16.4415 24.8545 16.6399 24.6627 16.7391 24.4742L16.8284 24.3056V21.1443V17.9863L16.7292 17.7912C16.6168 17.5729 16.3952 17.3778 16.1836 17.315C16.1109 17.2919 15.7901 17.2786 15.3801 17.2786H14.7022L14.4905 17.3878Z" fill="#0358FF"/>
<path d="M18.6274 18.9486C18.429 19.0114 18.1876 19.2263 18.0751 19.4413L17.9858 19.6099V21.9577V24.3056L18.0751 24.4742C18.1214 24.5635 18.2239 24.6958 18.3 24.7652C18.5513 24.9901 18.5943 25 19.4078 25C20.132 25 20.1353 25 20.3039 24.9107C20.5122 24.8016 20.6875 24.6098 20.7669 24.4015C20.8264 24.2494 20.8297 24.1171 20.8297 21.9412V19.643L20.7503 19.471C20.6643 19.2759 20.4527 19.0643 20.2609 18.9783C20.0857 18.8957 18.8588 18.8758 18.6274 18.9486Z" fill="#0358FF"/>
<path d="M10.6614 21.508C10.4133 21.5841 10.1786 21.7957 10.0694 22.0404C10.0066 22.1793 10 22.2554 10 23.2474C10 24.2064 10.0066 24.3188 10.0628 24.4412C10.1521 24.6329 10.3175 24.8082 10.5092 24.9107C10.6779 25 10.6812 25 11.4054 25C12.0138 25 12.1527 24.9901 12.2552 24.9438C12.4305 24.8644 12.662 24.6396 12.7513 24.461C12.824 24.3122 12.8273 24.2692 12.8372 23.3201C12.8472 22.5001 12.8405 22.3083 12.7976 22.1595C12.7215 21.9015 12.5661 21.713 12.3181 21.5874L12.1097 21.4783L11.4285 21.4816C11.0516 21.4816 10.7077 21.4948 10.6614 21.508Z" fill="#0358FF"/>
</svg>
