<svg width="28" height="28" viewBox="0 0 28 28" fill="none" xmlns="http://www.w3.org/2000/svg">
<path d="M4.66659 21C4.02492 21 3.47562 20.7716 3.01867 20.3146C2.56172 19.8576 2.33325 19.3083 2.33325 18.6667V9.33333C2.33325 8.69167 2.56172 8.14237 3.01867 7.68542C3.47562 7.22847 4.02492 7 4.66659 7H23.3333C23.9749 7 24.5242 7.22847 24.9812 7.68542C25.4382 8.14237 25.6666 8.69167 25.6666 9.33333V18.6667C25.6666 19.3083 25.4382 19.8576 24.9812 20.3146C24.5242 20.7716 23.9749 21 23.3333 21H4.66659ZM4.66659 18.6667H23.3333V9.33333H19.8333V14H17.4999V9.33333H15.1666V14H12.8333V9.33333H10.4999V14H8.16659V9.33333H4.66659V18.6667Z" fill="#1F3FD0"/>
</svg>
