<svg width="48" height="31" viewBox="0 0 48 31" fill="none" xmlns="http://www.w3.org/2000/svg">
<path d="M-3.00272e-07 23.9167C-1.35395e-07 27.6886 2.976 30.7861 6.6 30.7861L41.4 30.7861C45.024 30.7861 48 27.6886 48 23.9167L48 7.67991C48 3.90797 45.024 0.81049 41.4 0.81049L36.8952 0.81049C36.7032 0.778015 36.504 0.778015 36.312 0.81049L28.4952 0.81049C28.3032 0.778016 28.104 0.778016 27.912 0.81049L20.0952 0.810491C19.9032 0.778016 19.704 0.778016 19.512 0.810491L11.6952 0.810491C11.5032 0.778017 11.304 0.778017 11.112 0.810491L6.6 0.810491C2.976 0.810491 -1.17488e-06 3.90797 -1.01001e-06 7.67991L-3.00272e-07 23.9167ZM3.6 23.9167L3.6 7.67991C3.6 5.93383 4.9224 4.55745 6.6 4.55745L9.6 4.55745L9.6 12.6758C9.5976 12.9231 9.64084 13.1704 9.72964 13.4002C9.81844 13.6325 9.95041 13.8399 10.1184 14.0172C10.2864 14.1946 10.4856 14.3345 10.7064 14.4319C10.9248 14.5269 11.1624 14.5768 11.4 14.5768C11.6376 14.5768 11.8752 14.5269 12.0936 14.4319C12.3144 14.3345 12.5136 14.1946 12.6816 14.0172C12.8496 13.8399 12.9816 13.6325 13.0704 13.4002C13.1592 13.1704 13.2024 12.9231 13.2 12.6758L13.2 4.55745L18 4.55745L18 8.92889C17.9976 9.17619 18.0408 9.42344 18.1296 9.65325C18.2184 9.88556 18.3504 10.0929 18.5184 10.2703C18.6864 10.4476 18.8856 10.5876 19.1064 10.685C19.3248 10.7799 19.5624 10.8298 19.8 10.8298C20.0376 10.8298 20.2752 10.7799 20.4936 10.685C20.7144 10.5876 20.9136 10.4476 21.0816 10.2703C21.2496 10.0929 21.3816 9.88556 21.4704 9.65325C21.5592 9.42344 21.6024 9.17619 21.6 8.92889L21.6 4.55745L26.4 4.55745L26.4 12.6758C26.3976 12.9231 26.4408 13.1704 26.5296 13.4002C26.6184 13.6325 26.7504 13.8399 26.9184 14.0172C27.0864 14.1946 27.2856 14.3345 27.5064 14.4319C27.7248 14.5269 27.9624 14.5768 28.2 14.5768C28.4376 14.5768 28.6752 14.5269 28.8936 14.4319C29.1144 14.3345 29.3136 14.1946 29.4816 14.0172C29.6496 13.8399 29.7816 13.6325 29.8704 13.4002C29.9592 13.1704 30.0024 12.9231 30 12.6758L30 4.55745L34.8 4.55745L34.8 8.92889C34.7976 9.17619 34.8408 9.42344 34.9296 9.65325C35.0184 9.88556 35.1504 10.0929 35.3184 10.2703C35.4864 10.4476 35.6856 10.5876 35.9064 10.685C36.1248 10.7799 36.3624 10.8298 36.6 10.8298C36.8376 10.8298 37.0752 10.7799 37.2936 10.685C37.5144 10.5876 37.7136 10.4476 37.8816 10.2703C38.0496 10.0929 38.1816 9.88556 38.2704 9.65325C38.3592 9.42344 38.4024 9.17619 38.4 8.92889L38.4 4.55745L41.4 4.55745C43.0776 4.55745 44.4 5.93383 44.4 7.67991L44.4 23.9167C44.4 25.6628 43.0776 27.0392 41.4 27.0392L6.6 27.0392C4.9224 27.0392 3.6 25.6628 3.6 23.9167Z" fill="white"/>
</svg>
