<svg width="28" height="28" viewBox="0 0 28 28" fill="none" xmlns="http://www.w3.org/2000/svg">
<path d="M17.5 24.5L10.5 22.05L5.075 24.15C4.68611 24.3055 4.32638 24.2618 3.99583 24.0187C3.66528 23.7757 3.5 23.45 3.5 23.0417V6.70833C3.5 6.45555 3.57292 6.23195 3.71875 6.0375C3.86458 5.84305 4.06389 5.69722 4.31667 5.6L10.5 3.5L17.5 5.95L22.925 3.85C23.3138 3.69445 23.6737 3.7382 24.0042 3.98125C24.3347 4.2243 24.5 4.55 24.5 4.95833V21.2917C24.5 21.5445 24.4271 21.768 24.2812 21.9625C24.1354 22.157 23.9361 22.3028 23.6833 22.4L17.5 24.5ZM16.3333 21.6417V7.99167L11.6667 6.35833V20.0083L16.3333 21.6417Z" fill="#1F3FD0"/>
</svg>
