<svg width="40" height="42" viewBox="0 0 40 42" fill="none" xmlns="http://www.w3.org/2000/svg">
<path d="M20 9.41771C18.7778 9.41771 17.7316 8.99513 16.8611 8.14995C15.9907 7.30477 15.5556 6.28876 15.5556 5.10192C15.5556 3.91508 15.9907 2.89907 16.8611 2.0539C17.7316 1.20872 18.7778 0.786133 20 0.786133C21.2222 0.786133 22.2684 1.20872 23.1389 2.0539C24.0093 2.89907 24.4444 3.91508 24.4444 5.10192C24.4444 6.28876 24.0093 7.30477 23.1389 8.14995C22.2684 8.99513 21.2222 9.41771 20 9.41771ZM13.3333 41.7861V15.8914C11.1111 15.7116 8.85184 15.4418 6.55556 15.0822C4.25927 14.7225 2.07407 14.273 0 13.7335L1.11111 9.41771C4 10.173 7.07407 10.7214 10.3333 11.0631C13.5926 11.4048 16.8149 11.5756 20 11.5756C23.1851 11.5756 26.4073 11.4048 29.6667 11.0631C32.926 10.7214 36 10.173 38.8889 9.41771L40 13.7335C37.926 14.273 35.7407 14.7225 33.4444 15.0822C31.1482 15.4418 28.8889 15.7116 26.6667 15.8914V41.7861H22.2222V28.8388H17.7778V41.7861H13.3333Z" fill="white"/>
</svg>
