<svg width="56" height="57" viewBox="0 0 56 57" fill="none" xmlns="http://www.w3.org/2000/svg">
<path d="M25.667 40.4528H30.3337V26.4528H25.667V40.4528ZM28.0003 21.7862C28.6614 21.7862 29.2155 21.5625 29.6628 21.1153C30.1101 20.6681 30.3337 20.1139 30.3337 19.4528C30.3337 18.7917 30.1101 18.2376 29.6628 17.7903C29.2155 17.3431 28.6614 17.1195 28.0003 17.1195C27.3393 17.1195 26.7851 17.3431 26.3378 17.7903C25.8905 18.2376 25.667 18.7917 25.667 19.4528C25.667 20.1139 25.8905 20.6681 26.3378 21.1153C26.7851 21.5625 27.3393 21.7862 28.0003 21.7862ZM28.0003 52.1195C24.7726 52.1195 21.7392 51.507 18.9003 50.282C16.0614 49.057 13.592 47.3945 11.492 45.2945C9.39199 43.1945 7.72949 40.7251 6.50449 37.8862C5.27949 35.0472 4.66699 32.0139 4.66699 28.7862C4.66699 25.5585 5.27949 22.5251 6.50449 19.6862C7.72949 16.8473 9.39199 14.3778 11.492 12.2778C13.592 10.1778 16.0614 8.51532 18.9003 7.29032C21.7392 6.06532 24.7726 5.45282 28.0003 5.45282C31.228 5.45282 34.2614 6.06532 37.1003 7.29032C39.9393 8.51532 42.4087 10.1778 44.5087 12.2778C46.6087 14.3778 48.2712 16.8473 49.4962 19.6862C50.7212 22.5251 51.3337 25.5585 51.3337 28.7862C51.3337 32.0139 50.7212 35.0472 49.4962 37.8862C48.2712 40.7251 46.6087 43.1945 44.5087 45.2945C42.4087 47.3945 39.9393 49.057 37.1003 50.282C34.2614 51.507 31.228 52.1195 28.0003 52.1195Z" fill="white"/>
</svg>
