<svg width="28" height="28" viewBox="0 0 28 28" fill="none" xmlns="http://www.w3.org/2000/svg">
<path d="M10.7918 25.6668L10.3251 21.9335C10.0724 21.8363 9.83417 21.7196 9.61056 21.5835C9.38695 21.4473 9.1682 21.3015 8.95431 21.146L5.48348 22.6043L2.27515 17.0627L5.27931 14.7877C5.25986 14.6515 5.25015 14.5203 5.25015 14.3939V13.6064C5.25015 13.4801 5.25986 13.3488 5.27931 13.2127L2.27515 10.9377L5.48348 5.396L8.95431 6.85433C9.1682 6.69878 9.39181 6.55294 9.62515 6.41683C9.85848 6.28071 10.0918 6.16405 10.3251 6.06683L10.7918 2.3335H17.2085L17.6751 6.06683C17.928 6.16405 18.1661 6.28071 18.3897 6.41683C18.6134 6.55294 18.8321 6.69878 19.046 6.85433L22.5168 5.396L25.7251 10.9377L22.721 13.2127C22.7405 13.3488 22.7501 13.4801 22.7501 13.6064V14.3939C22.7501 14.5203 22.7307 14.6515 22.6918 14.7877L25.696 17.0627L22.4876 22.6043L19.046 21.146C18.8321 21.3015 18.6085 21.4473 18.3751 21.5835C18.1418 21.7196 17.9085 21.8363 17.6751 21.9335L17.2085 25.6668H10.7918ZM14.0585 18.0835C15.1863 18.0835 16.1488 17.6848 16.946 16.8877C17.7432 16.0905 18.1418 15.128 18.1418 14.0002C18.1418 12.8723 17.7432 11.9098 16.946 11.1127C16.1488 10.3154 15.1863 9.91683 14.0585 9.91683C12.9113 9.91683 11.9439 10.3154 11.1564 11.1127C10.3689 11.9098 9.97515 12.8723 9.97515 14.0002C9.97515 15.128 10.3689 16.0905 11.1564 16.8877C11.9439 17.6848 12.9113 18.0835 14.0585 18.0835Z" fill="#63BC6C"/>
</svg>
