<svg width="31" height="31" viewBox="0 0 31 31" fill="none" xmlns="http://www.w3.org/2000/svg">
<path d="M13.8715 3C12.3333 3.02567 10.9441 3.93574 10.3156 5.34285L17.8409 7.59705C18.1717 5.64039 16.9864 3.74203 15.0788 3.16682C14.737 3.06298 14.3787 3.007 14.0203 3H13.8715ZM10.0289 6.28558C9.69257 8.24807 10.8779 10.1511 12.7909 10.7263C14.7095 11.3003 16.7548 10.3599 17.5597 8.5386L10.0289 6.28558ZM24.666 8.7078C23.2712 8.71364 21.7882 9.38102 20.669 10.9503L13.7887 20.6251C11.9419 23.2177 12.7468 25.9304 14.5662 27.2103C16.3909 28.4949 19.2301 28.3479 21.077 25.7554L27.9517 16.0852C29.7986 13.488 28.9938 10.7811 27.1744 9.49535C26.4908 9.01348 25.6694 8.73464 24.8039 8.7078H24.666ZM24.5668 9.65405C24.6384 9.65405 24.7101 9.65402 24.7762 9.65986C25.4433 9.68669 26.0718 9.92238 26.6011 10.2992C28.018 11.2945 28.7292 13.2803 27.1359 15.517L23.5799 20.5213C21.6063 19.9962 19.0703 18.2076 17.9181 16.5286L21.485 11.5185C22.4167 10.2118 23.5248 9.67622 24.5668 9.65405ZM6.91682 13.8217C6.38639 13.8264 5.86326 13.9361 5.37705 14.1496C3.55161 14.943 2.60178 16.9661 3.15855 18.8691L10.3652 15.7469C9.64294 14.5381 8.33086 13.8054 6.91682 13.8217ZM10.7566 16.6441L3.55114 19.7722C4.56824 21.4897 6.71006 22.1781 8.54586 21.3858C10.3762 20.5866 11.3244 18.5518 10.7566 16.6441Z" fill="white"/>
</svg>
