<svg width="28" height="28" viewBox="0 0 28 28" fill="none" xmlns="http://www.w3.org/2000/svg">
<path d="M16.9167 20.9999C16.1 20.9999 14.5833 20.9999 14 20.9999C14 20.4166 14 18.8999 14 18.0833C14 17.2666 14 16.3333 14 15.1666C14.5833 15.1666 16.1 15.1666 16.9167 15.1666C17.7333 15.1666 18.9875 15.1666 19.8333 15.1666C19.8333 15.7499 19.8333 17.2666 19.8333 18.0833C19.8333 18.8999 19.8333 20.4166 19.8333 20.9999C19.25 20.9999 17.7333 20.9999 16.9167 20.9999ZM5.83333 25.6666C5.19167 25.6666 4.64237 25.4382 4.18542 24.9812C3.72847 24.5242 3.5 23.9749 3.5 23.3333V6.99992C3.5 6.35825 3.72847 5.80895 4.18542 5.352C4.64237 4.89505 5.19167 4.66659 5.83333 4.66659H7V2.33325H9.33333V4.66659H18.6667V2.33325H21V4.66659H22.1667C22.8083 4.66659 23.3576 4.89505 23.8146 5.352C24.2716 5.80895 24.5 6.35825 24.5 6.99992V23.3333C24.5 23.9749 24.2716 24.5242 23.8146 24.9812C23.3576 25.4382 22.8083 25.6666 22.1667 25.6666H5.83333ZM5.83333 23.3333H22.1667V11.6666H5.83333V23.3333Z" fill="#1F3FD0"/>
</svg>
