<svg width="28" height="28" viewBox="0 0 28 28" fill="none" xmlns="http://www.w3.org/2000/svg">
<path d="M5 17C4.175 17 3.46876 16.7063 2.88125 16.1188C2.29375 15.5312 2 14.825 2 14C2 13.175 2.29375 12.4688 2.88125 11.8812C3.46876 11.2937 4.175 11 5 11C5.825 11 6.53124 11.2937 7.11875 11.8812C7.70625 12.4688 8 13.175 8 14C8 14.825 7.70625 15.5312 7.11875 16.1188C6.53124 16.7063 5.825 17 5 17ZM14 17C13.175 17 12.4688 16.7063 11.8812 16.1188C11.2937 15.5312 11 14.825 11 14C11 13.175 11.2937 12.4688 11.8812 11.8812C12.4688 11.2937 13.175 11 14 11C14.825 11 15.5312 11.2937 16.1188 11.8812C16.7063 12.4688 17 13.175 17 14C17 14.825 16.7063 15.5312 16.1188 16.1188C15.5312 16.7063 14.825 17 14 17ZM23 17C22.175 17 21.4688 16.7063 20.8812 16.1188C20.2937 15.5312 20 14.825 20 14C20 13.175 20.2937 12.4688 20.8812 11.8812C21.4688 11.2937 22.175 11 23 11C23.825 11 24.5312 11.2937 25.1188 11.8812C25.7063 12.4688 26 13.175 26 14C26 14.825 25.7063 15.5312 25.1188 16.1188C24.5312 16.7063 23.825 17 23 17Z" fill="#A7B6DD"/>
</svg>
