<svg width="28" height="28" viewBox="0 0 28 28" fill="none" xmlns="http://www.w3.org/2000/svg">
<path d="M4.66675 22.1667V19.8333H7.00008V11.6667C7.00008 10.0528 7.4862 8.61875 8.45841 7.36459C9.43063 6.11042 10.6945 5.28889 12.2501 4.9V4.08334C12.2501 3.59722 12.4202 3.18403 12.7605 2.84375C13.1008 2.50347 13.5139 2.33334 14.0001 2.33334C14.4862 2.33334 14.8993 2.50347 15.2397 2.84375C15.58 3.18403 15.7501 3.59722 15.7501 4.08334V4.9C17.3056 5.28889 18.5696 6.11042 19.5417 7.36459C20.5139 8.61875 21.0001 10.0528 21.0001 11.6667V19.8333H23.3334V22.1667H4.66675ZM14.0001 25.6667C13.3584 25.6667 12.8091 25.4382 12.3522 24.9813C11.8952 24.5243 11.6667 23.975 11.6667 23.3333H16.3334C16.3334 23.975 16.105 24.5243 15.648 24.9813C15.191 25.4382 14.6417 25.6667 14.0001 25.6667Z" fill="white"/>
</svg>
