<svg width="35" height="35" viewBox="0 0 35 35" fill="none" xmlns="http://www.w3.org/2000/svg">
<rect width="35" height="35" rx="10" fill="#0358FF" fill-opacity="0.3"/>
<path d="M17.029 7.96425C16.4958 8.16931 16.1752 8.5086 16.041 9.01193C16 9.16107 15.9888 9.96267 15.9888 13.102C15.9888 16.7707 15.9925 17.0168 16.0559 17.2219C16.1193 17.4157 16.2348 17.6283 16.3691 17.796C16.4884 17.9414 16.7941 18.1316 17.0178 18.2024C17.8231 18.4485 18.6546 18.0235 18.8969 17.2442C18.9678 17.0093 18.9715 16.8975 18.9715 13.0983C18.9715 8.94855 18.9752 9.02684 18.7925 8.67265C18.6732 8.44149 18.3861 8.17304 18.114 8.04628C17.9014 7.94561 17.8269 7.9307 17.5174 7.92324C17.29 7.91578 17.1147 7.9307 17.029 7.96425Z" fill="#0358FF"/>
<path d="M12.0031 9.87314C11.7683 9.93653 11.6825 9.99245 11.2127 10.3951C9.57224 11.8119 8.45372 13.8439 8.10325 16.0399C7.97276 16.8713 7.9653 18.0271 8.08461 18.8698C8.31204 20.4581 8.92723 21.9382 9.91525 23.2618C10.2657 23.7279 11.2798 24.742 11.7422 25.0887C13.1217 26.1215 14.7845 26.7814 16.4548 26.9641C16.8985 27.0126 18.0618 27.0126 18.5166 26.9604C19.6016 26.8448 20.6269 26.5465 21.6373 26.0506C22.5992 25.5809 23.2741 25.1074 24.0347 24.3729C25.0861 23.3625 25.8206 22.2626 26.3351 20.9427C27.778 17.2554 26.7005 12.9192 23.6954 10.3504C23.1883 9.91788 23.0317 9.83959 22.6626 9.83959C22.0288 9.83959 21.5851 10.2572 21.5516 10.8835C21.5292 11.2974 21.6112 11.4875 21.9505 11.8082C22.8938 12.6955 23.2107 13.0572 23.6059 13.6836C24.7878 15.5627 25.0339 17.8743 24.277 19.9734C23.6544 21.7033 22.3532 23.1611 20.694 23.9963C19.6687 24.5108 18.6732 24.742 17.4802 24.742C16.7643 24.742 16.3244 24.6935 15.7166 24.5369C13.1515 23.8844 11.1195 21.8525 10.4745 19.2836C9.93016 17.1361 10.3925 14.9027 11.7459 13.1243C11.9696 12.826 12.3723 12.4085 12.9912 11.8268C13.3342 11.5025 13.4162 11.3309 13.4162 10.9283C13.4162 10.2087 12.7115 9.68299 12.0031 9.87314Z" fill="#0358FF"/>
</svg>
