<svg width="49" height="50" viewBox="0 0 49 50" fill="none" xmlns="http://www.w3.org/2000/svg">
<path d="M24.5003 25.2862C22.2545 25.2862 20.3319 24.4864 18.7326 22.8872C17.1333 21.288 16.3337 19.3653 16.3337 17.1195C16.3337 14.8737 17.1333 12.9511 18.7326 11.3518C20.3319 9.75248 22.2545 8.95282 24.5003 8.95282C26.7462 8.95282 28.6688 9.75248 30.268 11.3518C31.8673 12.9511 32.667 14.8737 32.667 17.1195C32.667 19.3653 31.8673 21.288 30.268 22.8872C28.6688 24.4864 26.7462 25.2862 24.5003 25.2862ZM8.16699 41.6195V35.9028C8.16699 34.7458 8.46473 33.6825 9.06022 32.7127C9.65571 31.7429 10.4469 31.0028 11.4337 30.4924C13.5434 29.4375 15.6871 28.6463 17.8649 28.119C20.0427 27.5916 22.2545 27.3278 24.5003 27.3278C26.7462 27.3278 28.9579 27.5916 31.1357 28.119C33.3136 28.6463 35.4573 29.4375 37.567 30.4924C38.5537 31.0028 39.3449 31.7429 39.9404 32.7127C40.536 33.6825 40.8337 34.7458 40.8337 35.9028V41.6195H8.16699ZM12.2503 37.5362H36.7503V35.9028C36.7503 35.5286 36.6568 35.1882 36.4696 34.882C36.2824 34.5757 36.0357 34.3375 35.7295 34.1674C33.892 33.2487 32.0375 32.5596 30.166 32.1002C28.2944 31.6408 26.4058 31.4112 24.5003 31.4112C22.5948 31.4112 20.7063 31.6408 18.8347 32.1002C16.9632 32.5596 15.1087 33.2487 13.2712 34.1674C12.9649 34.3375 12.7182 34.5757 12.5311 34.882C12.3439 35.1882 12.2503 35.5286 12.2503 35.9028V37.5362ZM24.5003 21.2028C25.6232 21.2028 26.5845 20.803 27.3842 20.0033C28.1839 19.2037 28.5837 18.2424 28.5837 17.1195C28.5837 15.9966 28.1839 15.0353 27.3842 14.2356C26.5845 13.436 25.6232 13.0362 24.5003 13.0362C23.3774 13.0362 22.4162 13.436 21.6165 14.2356C20.8168 15.0353 20.417 15.9966 20.417 17.1195C20.417 18.2424 20.8168 19.2037 21.6165 20.0033C22.4162 20.803 23.3774 21.2028 24.5003 21.2028Z" fill="white"/>
</svg>
