<svg width="46" height="46" viewBox="0 0 46 46" fill="none" xmlns="http://www.w3.org/2000/svg">
<rect width="46" height="46" rx="10" fill="#DBF7DE"/>
<g clip-path="url(#clip0_42_1730)">
<path d="M15.0545 11.0704C14.5248 11.2345 14.3889 11.347 12.9639 12.7767C11.6514 14.0892 11.5623 14.1829 11.3842 14.5485C11.2811 14.7595 11.1545 15.097 11.1076 15.2985C10.9951 15.8001 10.9904 16.8548 11.1076 17.4923C11.7029 20.7548 14.0748 24.6267 17.7029 28.2548C21.3686 31.9251 25.2686 34.3345 28.4608 34.911C28.9342 34.9954 29.1404 35.0048 29.7498 34.986C30.5608 34.9579 30.842 34.9017 31.3904 34.6392C31.7186 34.4798 31.8451 34.3673 33.1529 33.0595C34.3857 31.8267 34.5826 31.611 34.7139 31.3438C35.0654 30.622 35.0748 29.8532 34.7467 29.1595C34.5826 28.8126 34.4936 28.7142 32.8061 27.0173C31.8358 26.0423 30.917 25.1517 30.767 25.0392C30.3639 24.7345 30.0545 24.6267 29.4686 24.6032C28.8967 24.5798 28.5498 24.6735 28.1233 24.9548C27.7014 25.2313 27.5233 25.4751 27.2373 26.1407C27.0592 26.5485 26.8529 26.8298 26.567 27.0454C25.892 27.561 25.1654 27.6782 24.3592 27.4063C22.3061 26.722 19.8873 24.4954 18.8561 22.3438C18.6029 21.8095 18.3592 21.0173 18.3592 20.7313C18.3686 19.9954 18.9451 19.1423 19.6576 18.8235C20.3983 18.486 20.5061 18.4251 20.7545 18.1767C21.2983 17.6329 21.5279 16.7845 21.3358 16.0392C21.1764 15.4251 21.0826 15.3126 19.2264 13.4423C17.1873 11.3845 17.0467 11.2673 16.3811 11.0751C16.067 10.986 15.3311 10.9813 15.0545 11.0704Z" fill="#0DCB2B"/>
</g>
<defs>
<clipPath id="clip0_42_1730">
<rect width="24" height="24" fill="white" transform="translate(11 11)"/>
</clipPath>
</defs>
</svg>
