<svg width="28" height="28" viewBox="0 0 28 28" fill="none" xmlns="http://www.w3.org/2000/svg">
<path d="M14.0001 14.0001C12.7167 14.0001 11.6181 13.5431 10.7042 12.6292C9.79036 11.7154 9.33342 10.6167 9.33342 9.33341C9.33342 8.05008 9.79036 6.95147 10.7042 6.03758C11.6181 5.1237 12.7167 4.66675 14.0001 4.66675C15.2834 4.66675 16.3821 5.1237 17.2959 6.03758C18.2098 6.95147 18.6667 8.05008 18.6667 9.33341C18.6667 10.6167 18.2098 11.7154 17.2959 12.6292C16.3821 13.5431 15.2834 14.0001 14.0001 14.0001ZM4.66675 23.3334V20.0667C4.66675 19.4056 4.83688 18.798 5.17716 18.2438C5.51745 17.6897 5.96953 17.2667 6.53341 16.9751C7.73897 16.3723 8.96397 15.9202 10.2084 15.6188C11.4529 15.3175 12.7167 15.1667 14.0001 15.1667C15.2834 15.1667 16.5473 15.3175 17.7917 15.6188C19.0362 15.9202 20.2612 16.3723 21.4667 16.9751C22.0306 17.2667 22.4827 17.6897 22.823 18.2438C23.1633 18.798 23.3334 19.4056 23.3334 20.0667V23.3334H4.66675ZM7.00008 21.0001H21.0001V20.0667C21.0001 19.8529 20.9466 19.6584 20.8397 19.4834C20.7327 19.3084 20.5917 19.1723 20.4167 19.0751C19.3667 18.5501 18.3071 18.1563 17.2376 17.8938C16.1681 17.6313 15.0889 17.5001 14.0001 17.5001C12.9112 17.5001 11.8321 17.6313 10.7626 17.8938C9.69313 18.1563 8.63341 18.5501 7.58342 19.0751C7.40841 19.1723 7.26745 19.3084 7.1605 19.4834C7.05355 19.6584 7.00008 19.8529 7.00008 20.0667V21.0001ZM14.0001 11.6667C14.6417 11.6667 15.191 11.4383 15.648 10.9813C16.105 10.5244 16.3334 9.97508 16.3334 9.33341C16.3334 8.69175 16.105 8.14245 15.648 7.6855C15.191 7.22855 14.6417 7.00008 14.0001 7.00008C13.3584 7.00008 12.8091 7.22855 12.3522 7.6855C11.8952 8.14245 11.6667 8.69175 11.6667 9.33341C11.6667 9.97508 11.8952 10.5244 12.3522 10.9813C12.8091 11.4383 13.3584 11.6667 14.0001 11.6667Z" fill="#F33178"/>
</svg>
