<svg width="28" height="28" viewBox="0 0 28 28" fill="none" xmlns="http://www.w3.org/2000/svg">
<path d="M11.2876 15.9833L12.3084 12.6583L9.62508 10.4999H12.9501L14.0001 7.23325L15.0501 10.4999H18.3751L15.6626 12.6583L16.6834 15.9833L14.0001 13.9124L11.2876 15.9833ZM7.00008 26.8333V17.8208C6.2612 17.0041 5.68758 16.0708 5.27925 15.0208C4.87091 13.9708 4.66675 12.8527 4.66675 11.6666C4.66675 9.06103 5.57091 6.85408 7.37925 5.04575C9.18758 3.23742 11.3945 2.33325 14.0001 2.33325C16.6056 2.33325 18.8126 3.23742 20.6209 5.04575C22.4292 6.85408 23.3334 9.06103 23.3334 11.6666C23.3334 12.8527 23.1292 13.9708 22.7209 15.0208C22.3126 16.0708 21.7389 17.0041 21.0001 17.8208V26.8333L14.0001 24.4999L7.00008 26.8333ZM14.0001 18.6666C15.9446 18.6666 17.5973 17.9861 18.9584 16.6249C20.3196 15.2638 21.0001 13.6111 21.0001 11.6666C21.0001 9.72214 20.3196 8.06937 18.9584 6.70825C17.5973 5.34714 15.9446 4.66659 14.0001 4.66659C12.0556 4.66659 10.4029 5.34714 9.04175 6.70825C7.68063 8.06937 7.00008 9.72214 7.00008 11.6666C7.00008 13.6111 7.68063 15.2638 9.04175 16.6249C10.4029 17.9861 12.0556 18.6666 14.0001 18.6666Z" fill="#1F3FD0"/>
</svg>
