<svg width="31" height="31" viewBox="0 0 31 31" fill="none" xmlns="http://www.w3.org/2000/svg">
<path d="M5.51058 4.257L4.87086 6.03706C4.71608 6.46773 4.38718 6.80774 3.97057 6.96774L2.24861 7.62904C1.91713 7.75705 1.91713 8.24238 2.24861 8.36904L3.97057 9.03043C4.38718 9.19043 4.71608 9.53044 4.87086 9.96111L5.51058 11.7412C5.63441 12.0838 6.10389 12.0838 6.22643 11.7412L6.86623 9.96111C7.02101 9.53044 7.34991 9.19043 7.76652 9.03043L9.48847 8.36904C9.81996 8.24104 9.81996 7.75571 9.48847 7.62904L7.76778 6.96774C7.35117 6.80774 7.02226 6.46773 6.86749 6.03706L6.22777 4.257C6.10394 3.91433 5.63441 3.91433 5.51058 4.257ZM27.688 17.3252C28.4657 17.3332 29.0951 18.0132 28.9881 18.8092C28.6889 21.0253 27.7163 23.1653 26.0692 24.88C22.032 29.04 15.5055 29.04 11.4683 24.88C7.44406 20.7066 7.44406 13.9599 11.4683 9.78647C13.1258 8.08377 15.1972 7.07709 17.3409 6.76909C18.1096 6.65708 18.7674 7.3077 18.7752 8.11172C18.7971 10.4651 19.6781 12.8065 21.4116 14.5999C23.1451 16.3919 25.4114 17.3026 27.688 17.3252Z" fill="white"/>
</svg>
