<svg width="31" height="31" viewBox="0 0 31 31" fill="none" xmlns="http://www.w3.org/2000/svg">
<g clip-path="url(#clip0_9_531)">
<path d="M14.8927 0.634748C14.3829 0.80467 13.961 1.08592 13.586 1.49608L13.2813 1.83006L12.6075 1.85936C11.9981 1.8828 11.9044 1.90037 11.6114 2.05858C11.2423 2.2578 10.9317 2.62694 10.838 2.99608L10.7677 3.24803L8.71687 3.26561C6.78914 3.28905 6.6368 3.2949 6.27937 3.41795C5.21297 3.77537 4.41023 4.53709 3.95906 5.62694L3.78914 6.03709L3.77156 16.7012C3.75984 24.5293 3.77156 27.4531 3.81844 27.6875C3.85945 27.8633 3.99422 28.2324 4.12312 28.5019C4.58015 29.457 5.59969 30.2539 6.60164 30.4414C6.85359 30.4883 9.53133 30.5 16.0645 30.4883L25.1759 30.4707L25.5684 30.3125C26.6583 29.8789 27.461 29.0293 27.8009 27.9512L27.9298 27.541V16.8769V6.21287L27.795 5.80272C27.5899 5.18162 27.338 4.7949 26.8516 4.30858C26.5294 3.98631 26.2891 3.81053 25.9669 3.65819C25.211 3.28905 24.9239 3.25389 22.8087 3.25389H20.9278L20.8927 3.08983C20.7813 2.64451 20.3829 2.1699 19.961 1.98826C19.8028 1.91795 19.5098 1.87694 19.0411 1.85936L18.3614 1.83592L18.1622 1.57225C17.9044 1.22069 17.3243 0.81053 16.838 0.640608C16.293 0.447248 15.4434 0.447248 14.8927 0.634748ZM16.5157 2.52733C16.6329 2.62694 16.8262 2.86131 16.9434 3.04881C17.2657 3.57615 17.4766 3.66405 18.3907 3.66405H19.1114V4.86522V6.06639H15.8302H12.5489V4.87108V3.67576L13.3575 3.65233C14.1368 3.63475 14.1778 3.62889 14.3829 3.47655C14.4942 3.38865 14.6759 3.166 14.7813 2.98436C14.9044 2.76756 15.0567 2.59764 15.2384 2.48045C15.4786 2.32225 15.5489 2.31053 15.9005 2.32811C16.2345 2.34569 16.3282 2.37498 16.5157 2.52733ZM10.7442 5.86131C10.7735 6.56444 10.7911 6.68748 10.9317 6.96873C11.1075 7.33201 11.336 7.54881 11.7286 7.73045C11.9864 7.8535 12.0567 7.8535 15.8302 7.8535H19.668L19.9786 7.71287C20.3536 7.54295 20.711 7.15623 20.8341 6.78709C20.8985 6.59373 20.9278 6.2949 20.9278 5.791V5.06444L22.8497 5.08201C24.672 5.09959 24.7774 5.10545 25.0411 5.2285C25.3927 5.3867 25.8262 5.8203 25.9845 6.17186L26.1134 6.44725V16.8769V27.3066L25.9727 27.6172C25.7911 28.0156 25.3106 28.4609 24.9005 28.6074C24.6016 28.707 24.1739 28.7129 15.8009 28.7129H7.0118L6.61922 28.5195C6.1739 28.3027 5.91609 28.039 5.6993 27.5703L5.54695 27.248V16.9355C5.54695 5.26365 5.50008 6.2949 6.02742 5.71483C6.56648 5.11717 6.73055 5.07615 8.92195 5.07615L10.7149 5.0703L10.7442 5.86131Z" fill="white"/>
<path d="M10.0293 10.959L9.17383 11.8086L8.99805 11.627C8.39453 10.9824 7.39258 11.3223 7.39258 12.1719C7.39258 12.5586 7.47461 12.6875 8.10742 13.3145C8.66406 13.8652 8.8457 13.9766 9.16797 13.9766C9.54297 13.9707 9.80664 13.7715 10.9492 12.623C11.8867 11.668 12.0801 11.4453 12.1328 11.2402C12.2383 10.8418 12.0859 10.4199 11.7695 10.2266C11.6406 10.1445 11.4766 10.1094 11.2363 10.1094H10.8906L10.0293 10.959Z" fill="white"/>
<path d="M13.6035 11.2344C12.9941 11.5508 12.9648 12.4414 13.5566 12.8047C13.7441 12.916 13.8613 12.9219 18.6718 12.9219C23.4824 12.9219 23.5996 12.916 23.7871 12.8047C24.3789 12.4414 24.3496 11.5508 23.7402 11.2344L23.4824 11.1055H18.6718H13.8613L13.6035 11.2344Z" fill="white"/>
<path d="M10.9083 16.3847C10.8262 16.414 10.3985 16.8008 9.95906 17.2461L9.15047 18.043L8.96297 17.8613C8.69343 17.6094 8.55281 17.5508 8.2364 17.5508C7.87898 17.5508 7.58601 17.7324 7.44539 18.043C7.31062 18.3359 7.30476 18.4883 7.42195 18.7695C7.52156 19.0039 8.43562 19.9707 8.69343 20.1055C8.88093 20.2051 9.39656 20.2168 9.5782 20.123C9.75984 20.0293 11.9512 17.8437 12.0567 17.6562C12.1856 17.4101 12.1622 16.959 12.004 16.7246C11.7755 16.3789 11.3009 16.2324 10.9083 16.3847Z" fill="white"/>
<path d="M13.6329 17.4277C13.4278 17.5156 13.1934 17.791 13.129 18.0371C12.9942 18.5351 13.3516 19.0918 13.8555 19.1621C13.9903 19.1797 16.2403 19.1914 18.8594 19.1797C23.5587 19.1621 23.6173 19.1621 23.7755 19.039C24.0801 18.8164 24.1798 18.623 24.1798 18.2656C24.1798 18.0078 24.1505 17.8847 24.0391 17.7324C23.7696 17.3574 23.9923 17.375 18.6309 17.3808C15.9473 17.3808 13.6973 17.4043 13.6329 17.4277Z" fill="white"/>
<path d="M11.2891 22.5019C11.2598 22.5136 11.1543 22.5371 11.0605 22.5605C10.9492 22.584 10.6152 22.8652 10.082 23.3925L9.27344 24.1894L9.03906 23.9785C8.40625 23.4101 7.50977 23.7793 7.50977 24.6113C7.50977 24.9804 7.59766 25.1152 8.22461 25.7363C8.91602 26.4218 9.16211 26.5156 9.66602 26.3105C9.90039 26.2109 11.9395 24.2246 12.1504 23.8906C12.3965 23.4922 12.2559 22.8593 11.875 22.6425C11.6992 22.5429 11.3945 22.4726 11.2891 22.5019Z" fill="white"/>
<path d="M13.7384 23.6445C13.1114 23.9258 13.0704 24.8574 13.6739 25.2265C13.8614 25.3379 13.9786 25.3437 18.7599 25.3437C23.3009 25.3437 23.6642 25.3379 23.8517 25.2383C24.1446 25.0918 24.2853 24.8691 24.3087 24.5117C24.338 24.1074 24.1974 23.8437 23.8575 23.6621L23.6056 23.5273H18.795C14.1778 23.5273 13.9728 23.5332 13.7384 23.6445Z" fill="white"/>
</g>
<defs>
<clipPath id="clip0_9_531">
<rect width="30" height="30" fill="white" transform="translate(0.830078 0.5)"/>
</clipPath>
</defs>
</svg>
