<svg width="35" height="35" viewBox="0 0 35 35" fill="none" xmlns="http://www.w3.org/2000/svg">
<rect width="35" height="35" rx="10" fill="#0358FF" fill-opacity="0.3"/>
<path d="M16.2214 8.98114C16.1664 8.98802 15.9944 9.01209 15.8431 9.03272C15.3376 9.09806 14.9903 9.33189 14.7909 9.73767C14.7049 9.90961 14.674 10.0334 14.6396 10.3601C14.5708 10.9653 14.4264 11.2885 14.055 11.6393C13.5701 12.1001 12.8377 12.2342 12.229 11.9763C12.1155 11.9282 11.9333 11.8491 11.8198 11.8009C11.4243 11.6324 10.8913 11.6943 10.5371 11.9522C10.2036 12.1929 9.55364 13.2005 9.1685 14.0705C9 14.4453 9 14.4453 9 14.8236C9 15.1709 9.00688 15.219 9.09629 15.391C9.21664 15.6248 9.38858 15.8071 9.63617 15.9653C10.2001 16.3229 10.4993 16.8559 10.4993 17.4886C10.4993 18.1248 10.2276 18.6062 9.65336 19.0017C9.35075 19.208 9.22008 19.3456 9.09629 19.5863C9.00688 19.7582 9 19.8064 9 20.1537V20.5319L9.19601 20.9755C9.54676 21.7596 10.2036 22.7706 10.5234 23.0113C10.8707 23.2795 11.4174 23.3483 11.8198 23.1763C11.9333 23.1282 12.1155 23.0491 12.229 23.001C13.1196 22.6227 14.1685 23.0938 14.5261 24.0292C14.5639 24.1289 14.6155 24.3902 14.6396 24.6103C14.6705 24.8957 14.7083 25.0677 14.7702 25.2018C14.9559 25.6075 15.3239 25.8723 15.8259 25.9549C16.1801 26.0168 17.7448 26.0133 18.1299 25.9549C18.8761 25.8379 19.2716 25.4218 19.3438 24.6756C19.361 24.4968 19.4022 24.2492 19.4401 24.1254C19.5673 23.6715 19.9318 23.2486 20.3754 23.0422C20.8328 22.8256 21.3108 22.8118 21.7612 23.001C21.8747 23.0491 22.057 23.1282 22.1705 23.1763C22.5831 23.3517 23.1333 23.2761 23.4875 22.9941C23.8726 22.6915 24.6945 21.34 24.9421 20.6076C25.0005 20.4356 25.0109 20.3359 25.0005 20.0849C24.9799 19.5932 24.8183 19.3318 24.3369 19.0017C23.7626 18.6062 23.4909 18.1248 23.4909 17.4886C23.4909 16.8525 23.7626 16.3676 24.3403 15.9756C24.6223 15.783 24.7633 15.6317 24.8974 15.3807C24.9834 15.2156 24.9902 15.1709 24.9902 14.8236V14.4453L24.808 14.0361C24.5982 13.5581 24.2922 13.0217 23.993 12.5884C23.6629 12.1173 23.5184 11.9694 23.2605 11.8422C23.0611 11.7425 22.9889 11.7287 22.7172 11.7184C22.3802 11.7046 22.449 11.6874 21.7716 11.9729C20.9978 12.2995 20.1106 12.0141 19.6361 11.2817C19.4745 11.0306 19.3851 10.7383 19.3404 10.2776C19.3128 9.9887 19.2853 9.89241 19.1959 9.72047C18.993 9.34221 18.6595 9.10838 18.1987 9.02928C17.982 8.98802 16.4277 8.95363 16.2214 8.98114ZM17.7001 15.0815C18.546 15.3497 19.1409 15.9481 19.4091 16.8009C19.5226 17.1723 19.5226 17.805 19.4091 18.1764C19.0721 19.2458 18.2056 19.9302 17.112 19.9886C15.74 20.0643 14.5674 18.9982 14.4951 17.609C14.4573 16.8868 14.7118 16.2369 15.2276 15.7211C15.5783 15.3669 15.9944 15.14 16.4931 15.0265C16.7957 14.9577 17.3906 14.9852 17.7001 15.0815Z" fill="#0358FF"/>
</svg>
