<svg width="46" height="46" viewBox="0 0 46 46" fill="none" xmlns="http://www.w3.org/2000/svg">
<rect width="46" height="46" rx="10" fill="#EFDBFF"/>
<path d="M12.4531 18.0594C11.9094 18.2047 11.4219 18.6172 11.1734 19.1469L11.0234 19.4609V23V26.5391L11.1734 26.8531C11.3375 27.2047 11.6609 27.5562 11.9844 27.7484C12.4719 28.0344 11.7828 28.0156 23 28.0156C34.2172 28.0156 33.5281 28.0344 34.0156 27.7484C34.3391 27.5562 34.6625 27.2047 34.8266 26.8531L34.9766 26.5391V23V19.4609L34.8266 19.1469C34.6625 18.7953 34.3391 18.4437 34.0156 18.2516C33.5281 17.9656 34.2219 17.9844 22.9766 17.9891C14.0938 17.9891 12.6781 17.9984 12.4531 18.0594ZM33.4297 19.1422C33.6641 19.2687 33.8047 19.4141 33.8984 19.6344C33.9594 19.7891 33.9688 20.225 33.9688 23C33.9688 25.775 33.9594 26.2109 33.8984 26.3656C33.8047 26.5859 33.6641 26.7312 33.4297 26.8578L33.2422 26.9609H23H12.7578L12.5703 26.8578C12.3359 26.7312 12.1953 26.5859 12.1016 26.3656C12.0406 26.2109 12.0312 25.775 12.0312 23C12.0312 20.225 12.0406 19.7891 12.1016 19.6344C12.2234 19.3531 12.4438 19.1609 12.7813 19.0578C12.8469 19.0391 17.4734 19.025 23.0703 19.0297L33.2422 19.0391L33.4297 19.1422Z" fill="#660BAE"/>
<path d="M15.1435 21.1437C14.9889 21.2984 14.9842 21.3125 14.9842 21.6828C14.9842 21.8937 14.9748 22.0625 14.9607 22.0625C14.9514 22.0625 14.8014 21.9875 14.6326 21.8937C14.3748 21.7484 14.2904 21.725 14.131 21.7484C13.8826 21.7812 13.7185 21.9453 13.6904 22.1844C13.6576 22.4422 13.7889 22.6297 14.1357 22.8219C14.2951 22.9062 14.4217 22.9859 14.4217 23C14.4217 23.0141 14.2951 23.0937 14.1357 23.1781C13.7889 23.3703 13.6576 23.5578 13.6904 23.8203C13.7045 23.9516 13.756 24.0453 13.8592 24.1344C14.0607 24.3172 14.267 24.3078 14.642 24.1016C14.806 24.0125 14.9514 23.9375 14.9607 23.9375C14.9748 23.9375 14.9842 24.1062 14.9842 24.3172C14.9842 24.6875 14.9889 24.7016 15.1435 24.8562C15.2748 24.9875 15.3404 25.0156 15.4998 25.0156C15.6592 25.0156 15.7248 24.9875 15.856 24.8562C16.0107 24.7016 16.0154 24.6875 16.0154 24.3172C16.0154 24.1062 16.0248 23.9375 16.0389 23.9375C16.0482 23.9375 16.1935 24.0125 16.3576 24.1016C16.7326 24.3078 16.9389 24.3172 17.1404 24.1344C17.2435 24.0453 17.2951 23.9516 17.3092 23.8203C17.342 23.5578 17.2107 23.3703 16.8639 23.1781C16.7045 23.0937 16.5779 23.0141 16.5779 23C16.5779 22.9859 16.7045 22.9062 16.8639 22.8219C17.2107 22.6297 17.342 22.4422 17.3092 22.1844C17.281 21.9453 17.117 21.7812 16.8685 21.7484C16.7092 21.725 16.6248 21.7484 16.367 21.8937C16.1982 21.9875 16.0482 22.0625 16.0389 22.0625C16.0248 22.0625 16.0154 21.8937 16.0154 21.6828C16.0154 21.3125 16.0107 21.2984 15.856 21.1437C15.7248 21.0125 15.6592 20.9844 15.4998 20.9844C15.3404 20.9844 15.2748 21.0125 15.1435 21.1437Z" fill="#660BAE"/>
<path d="M20.2578 21.0406C20.0469 21.1531 20 21.2703 20 21.6968V22.1046L19.7188 21.9359C19.5547 21.8375 19.3484 21.7578 19.2266 21.7437C19.0344 21.725 19.0063 21.7343 18.8516 21.889C18.7203 22.0203 18.6875 22.0906 18.6875 22.2406C18.6875 22.475 18.8 22.625 19.1375 22.8218C19.2734 22.9062 19.3906 22.9859 19.3906 23C19.3906 23.014 19.2734 23.0937 19.1375 23.1781C18.8 23.375 18.6875 23.525 18.6875 23.7593C18.6875 23.9093 18.7203 23.9796 18.8469 24.1062C19.0719 24.3312 19.2688 24.3218 19.6859 24.0828L20 23.8953V24.3031C20 24.7343 20.0469 24.8515 20.2672 24.964C20.5156 25.0906 20.8578 24.964 20.9656 24.7109C21.0031 24.6218 21.0312 24.4109 21.0312 24.2421C21.0312 24.0734 21.0406 23.9375 21.0547 23.9375C21.0688 23.9375 21.1813 24.0031 21.3125 24.0828C21.6078 24.2609 21.8563 24.3031 22.0531 24.2C22.2406 24.1015 22.2969 23.9937 22.2969 23.7265C22.2969 23.4734 22.2125 23.3703 21.8375 23.1593C21.7063 23.0843 21.5938 23.014 21.5938 23C21.5938 22.9859 21.7063 22.9156 21.8375 22.8406C22.2125 22.6296 22.2969 22.5265 22.2969 22.2734C22.2969 21.7437 21.8516 21.5843 21.3078 21.9171C21.1813 21.9968 21.0688 22.0625 21.0547 22.0625C21.0406 22.0625 21.0312 21.9265 21.0312 21.7578C21.0312 21.589 21.0031 21.3781 20.9656 21.289C20.8578 21.0359 20.4969 20.9046 20.2578 21.0406Z" fill="#660BAE"/>
<path d="M25.2219 21.0734C25.0391 21.1859 24.9688 21.3781 24.9688 21.7625C24.9688 21.9265 24.9594 22.0625 24.9453 22.0625C24.9313 22.0625 24.8188 21.9968 24.6922 21.9171C24.1484 21.5843 23.7031 21.7437 23.7031 22.2734C23.7031 22.5265 23.7875 22.6296 24.1625 22.8406C24.2938 22.9156 24.4062 22.9859 24.4062 23C24.4062 23.014 24.2938 23.0843 24.1625 23.1593C23.7875 23.3703 23.7031 23.4734 23.7031 23.7265C23.7031 23.9937 23.7594 24.1015 23.9469 24.2C24.1438 24.3031 24.3922 24.2609 24.6875 24.0828C24.8188 24.0031 24.9313 23.9375 24.9453 23.9375C24.9594 23.9375 24.9688 24.0734 24.9688 24.2421C24.9688 24.4109 24.9969 24.6218 25.0344 24.7109C25.1422 24.964 25.4844 25.0906 25.7328 24.964C25.9531 24.8515 26 24.7343 26 24.3031V23.8953L26.3141 24.0828C26.7313 24.3218 26.9281 24.3312 27.1531 24.1062C27.2797 23.9796 27.3125 23.9093 27.3125 23.7593C27.3125 23.525 27.2 23.375 26.8625 23.1781C26.7266 23.0937 26.6094 23.014 26.6094 23C26.6094 22.9859 26.7266 22.9062 26.8625 22.8218C27.2 22.625 27.3125 22.475 27.3125 22.2406C27.3125 22.0906 27.2797 22.0203 27.1484 21.889C26.9938 21.7343 26.9656 21.725 26.7734 21.7437C26.6516 21.7578 26.4453 21.8375 26.2812 21.9359L26 22.1046V21.6968C26 21.3828 25.9813 21.2656 25.9156 21.1906C25.7375 20.9703 25.4656 20.9234 25.2219 21.0734Z" fill="#660BAE"/>
<path d="M30.1435 21.1437C29.9889 21.2984 29.9842 21.3125 29.9842 21.6828C29.9842 21.8937 29.9748 22.0625 29.9607 22.0625C29.9514 22.0625 29.8014 21.9875 29.6326 21.8937C29.3748 21.7484 29.2904 21.725 29.131 21.7484C28.8826 21.7812 28.7185 21.9453 28.6904 22.1844C28.6576 22.4422 28.7889 22.6297 29.1357 22.8219C29.2951 22.9062 29.4217 22.9859 29.4217 23C29.4217 23.0141 29.2951 23.0937 29.1357 23.1781C28.7889 23.3703 28.6576 23.5578 28.6904 23.8203C28.7045 23.9516 28.756 24.0453 28.8592 24.1344C29.0607 24.3172 29.267 24.3078 29.642 24.1016C29.806 24.0125 29.9514 23.9375 29.9607 23.9375C29.9748 23.9375 29.9842 24.1062 29.9842 24.3172C29.9842 24.6875 29.9889 24.7016 30.1435 24.8562C30.2748 24.9875 30.3404 25.0156 30.4998 25.0156C30.6592 25.0156 30.7248 24.9875 30.856 24.8562C31.0107 24.7016 31.0154 24.6875 31.0154 24.3172C31.0154 24.1062 31.0248 23.9375 31.0389 23.9375C31.0482 23.9375 31.1935 24.0125 31.3576 24.1016C31.7326 24.3078 31.9389 24.3172 32.1404 24.1344C32.2435 24.0453 32.2951 23.9516 32.3092 23.8203C32.342 23.5578 32.2107 23.3703 31.8639 23.1781C31.7045 23.0937 31.5779 23.0141 31.5779 23C31.5779 22.9859 31.7045 22.9062 31.8639 22.8219C32.2107 22.6297 32.342 22.4422 32.3092 22.1844C32.281 21.9453 32.117 21.7812 31.8685 21.7484C31.7092 21.725 31.6248 21.7484 31.367 21.8937C31.1982 21.9875 31.0482 22.0625 31.0389 22.0625C31.0248 22.0625 31.0154 21.8937 31.0154 21.6828C31.0154 21.3125 31.0107 21.2984 30.856 21.1437C30.7248 21.0125 30.6592 20.9844 30.4998 20.9844C30.3404 20.9844 30.2748 21.0125 30.1435 21.1437Z" fill="#660BAE"/>
</svg>
