<svg width="28" height="28" viewBox="0 0 28 28" fill="none" xmlns="http://www.w3.org/2000/svg">
<path d="M1.16675 23.3332V20.0665C1.16675 19.4054 1.33688 18.7978 1.67716 18.2436C2.01745 17.6894 2.46953 17.2665 3.03341 16.9748C4.23897 16.372 5.46397 15.9199 6.70841 15.6186C7.95286 15.3172 9.21675 15.1665 10.5001 15.1665C11.7834 15.1665 13.0473 15.3172 14.2917 15.6186C15.5362 15.9199 16.7612 16.372 17.9667 16.9748C18.5306 17.2665 18.9827 17.6894 19.323 18.2436C19.6633 18.7978 19.8334 19.4054 19.8334 20.0665V23.3332H1.16675ZM22.1667 23.3332V19.8332C22.1667 18.9777 21.9285 18.1561 21.4522 17.3686C20.9758 16.5811 20.3001 15.9054 19.4251 15.3415C20.4167 15.4582 21.3501 15.6574 22.2251 15.9394C23.1001 16.2214 23.9167 16.5665 24.6751 16.9748C25.3751 17.3637 25.9098 17.7964 26.2792 18.2728C26.6487 18.7491 26.8334 19.2693 26.8334 19.8332V23.3332H22.1667ZM10.5001 13.9998C9.21675 13.9998 8.11813 13.5429 7.20425 12.629C6.29036 11.7152 5.83341 10.6165 5.83341 9.33317C5.83341 8.04984 6.29036 6.95122 7.20425 6.03734C8.11813 5.12345 9.21675 4.6665 10.5001 4.6665C11.7834 4.6665 12.8821 5.12345 13.7959 6.03734C14.7098 6.95122 15.1667 8.04984 15.1667 9.33317C15.1667 10.6165 14.7098 11.7152 13.7959 12.629C12.8821 13.5429 11.7834 13.9998 10.5001 13.9998ZM22.1667 9.33317C22.1667 10.6165 21.7098 11.7152 20.7959 12.629C19.8821 13.5429 18.7834 13.9998 17.5001 13.9998C17.2862 13.9998 17.0139 13.9756 16.6834 13.9269C16.3529 13.8783 16.0806 13.8248 15.8667 13.7665C16.3917 13.1443 16.7952 12.454 17.0772 11.6957C17.3591 10.9373 17.5001 10.1498 17.5001 9.33317C17.5001 8.5165 17.3591 7.729 17.0772 6.97067C16.7952 6.21234 16.3917 5.52206 15.8667 4.89984C16.1389 4.80262 16.4112 4.73942 16.6834 4.71025C16.9556 4.68109 17.2279 4.6665 17.5001 4.6665C18.7834 4.6665 19.8821 5.12345 20.7959 6.03734C21.7098 6.95122 22.1667 8.04984 22.1667 9.33317Z" fill="#A7B6DD"/>
</svg>
