<svg width="31" height="30" viewBox="0 0 31 30" fill="none" xmlns="http://www.w3.org/2000/svg">
<path d="M22.7313 0C22.5258 0 22.3243 0.0620738 22.1533 0.176589C21.9836 0.292484 21.8498 0.455326 21.7725 0.645725C21.6953 0.837504 21.6774 1.04715 21.7187 1.24859C21.7615 1.45002 21.8636 1.6336 22.0112 1.77709L23.0044 2.77044L20.6041 5.16976L20.0993 4.66475C19.7668 4.33224 19.3226 4.16673 18.8784 4.16673C18.4356 4.16673 17.9914 4.33224 17.6603 4.66475L6.22976 16.097C5.18824 17.1387 5.05306 18.7626 5.81592 19.9616L3.87491 21.9014C3.21137 22.5665 3.21142 23.6771 3.87634 24.3421L4.03632 24.5008L1.31874 27.2187C1.21942 27.3139 1.1394 27.4285 1.0856 27.5541C1.03042 27.681 1.00143 27.8162 1.00005 27.9541C0.998672 28.0921 1.02492 28.2287 1.07735 28.3557C1.12977 28.484 1.20564 28.5999 1.30359 28.6965C1.40015 28.7944 1.51596 28.8703 1.64425 28.9227C1.77116 28.9752 1.90776 29.0013 2.04571 28.9999C2.18366 28.9986 2.3189 28.9696 2.44582 28.9144C2.57135 28.8606 2.68582 28.7806 2.78101 28.6813L5.49858 25.9646L5.65864 26.1247C6.32356 26.7883 7.43403 26.7897 8.09895 26.1233L10.0358 24.1848C11.2345 24.9478 12.8596 24.8111 13.9011 23.7695L25.3317 12.3373C25.9952 11.6723 25.9966 10.563 25.3317 9.898L25.3303 9.89657L24.8268 9.39299L27.2257 6.99367L28.219 7.98575C28.3142 8.08509 28.4286 8.16504 28.5542 8.21885C28.6811 8.27404 28.8163 8.30303 28.9543 8.30441C29.0922 8.30579 29.2288 8.27961 29.3557 8.22719C29.484 8.17476 29.5998 8.09887 29.6964 8.00091C29.7944 7.90433 29.8716 7.78842 29.9227 7.66011C29.9751 7.53318 30.0013 7.39657 29.9999 7.2586C29.9986 7.12063 29.9696 6.98545 29.9144 6.85851C29.8606 6.73296 29.7806 6.61839 29.6813 6.52319L23.4735 0.314526C23.3769 0.215187 23.2624 0.13662 23.1341 0.0814314C23.0072 0.027623 22.8706 0 22.7313 0ZM24.4667 4.23427L25.7634 5.52984L23.3631 7.92916L22.0678 6.63359L24.4667 4.23427ZM18.8797 6.37144L23.6252 11.1176L12.4375 22.3043C12.025 22.7182 11.3877 22.7182 10.9752 22.3043L7.69337 19.0234C7.2809 18.6122 7.2809 17.972 7.69337 17.5608L8.60246 16.6516L10.2855 18.3335C10.3807 18.4329 10.4951 18.5128 10.6207 18.5666C10.7476 18.6218 10.8828 18.6508 11.0208 18.6522C11.1587 18.6536 11.2953 18.6274 11.4222 18.575C11.5505 18.5225 11.6663 18.4466 11.7629 18.3487C11.8609 18.2521 11.9381 18.1362 11.9892 18.0079C12.0416 17.881 12.0678 17.7443 12.0664 17.6064C12.0651 17.4684 12.0361 17.3332 11.9809 17.2063C11.9271 17.0807 11.8471 16.9662 11.7478 16.871L10.0662 15.1878L11.3615 13.8922L13.0445 15.5741C13.1397 15.6735 13.2541 15.7534 13.3797 15.8072C13.5066 15.8624 13.6418 15.8914 13.7798 15.8928C13.9177 15.8942 14.0542 15.868 14.1812 15.8156C14.3095 15.7631 14.4253 15.6872 14.5219 15.5893C14.6199 15.4927 14.6971 15.3768 14.7482 15.2485C14.8006 15.1215 14.8268 14.9849 14.8254 14.847C14.8241 14.709 14.7951 14.5738 14.7399 14.4469C14.6861 14.3213 14.6061 14.2068 14.5068 14.1116L12.8252 12.4284L18.8797 6.37144ZM19.273 9.65927C19.0053 9.66755 18.7501 9.77929 18.5625 9.97245L17.183 11.3521C17.0837 11.4473 17.0036 11.5619 16.9498 11.6875C16.8947 11.8144 16.8657 11.9496 16.8643 12.0876C16.8629 12.2255 16.8892 12.3621 16.9416 12.4891C16.994 12.6174 17.0699 12.7333 17.1678 12.8299C17.2644 12.9278 17.3802 13.0037 17.5085 13.0561C17.6354 13.1086 17.772 13.1347 17.91 13.1334C18.0479 13.132 18.1832 13.103 18.3101 13.0478C18.4356 12.994 18.5501 12.9141 18.6453 12.8147L20.0248 11.435C20.1751 11.2901 20.2758 11.1025 20.3172 10.8983C20.3586 10.6941 20.3379 10.483 20.2565 10.2898C20.1751 10.0981 20.0372 9.93523 19.862 9.82348C19.6868 9.71034 19.4813 9.65375 19.273 9.65927ZM7.22296 21.4806L8.51969 22.7761L6.87808 24.4166L5.58278 23.1211L7.22296 21.4806Z" fill="white"/>
</svg>
