<svg width="84" height="85" viewBox="0 0 84 85" fill="none" xmlns="http://www.w3.org/2000/svg">
<path d="M70.9659 50.0275C71.7657 50.0275 72.4141 49.3791 72.4141 48.5793C72.4141 47.7794 71.7657 47.131 70.9659 47.131C70.166 47.131 69.5176 47.7794 69.5176 48.5793C69.5176 49.3791 70.166 50.0275 70.9659 50.0275Z" fill="#DCE9FF"/>
<path d="M4.34476 29.7517C5.14463 29.7517 5.79304 29.1032 5.79304 28.3034C5.79304 27.5035 5.14463 26.8551 4.34476 26.8551C3.5449 26.8551 2.89648 27.5035 2.89648 28.3034C2.89648 29.1032 3.5449 29.7517 4.34476 29.7517Z" fill="#DCE9FF"/>
<path fill-rule="evenodd" clip-rule="evenodd" d="M81.061 38.7705C81.0485 38.9823 80.8667 39.1437 80.655 39.1312L76.0547 38.8589C75.8429 38.8463 75.6815 38.6645 75.694 38.4528C75.7065 38.2411 75.8883 38.0796 76.1001 38.0921L80.7004 38.3645C80.9121 38.377 81.0736 38.5588 81.061 38.7705Z" fill="#DCE9FF"/>
<path fill-rule="evenodd" clip-rule="evenodd" d="M78.2188 41.2954C78.007 41.2828 77.8456 41.101 77.8581 40.8893L78.1304 36.289C78.143 36.0773 78.3248 35.9158 78.5365 35.9283C78.7482 35.9409 78.9097 36.1227 78.8972 36.3344L78.6248 40.9347C78.6123 41.1464 78.4305 41.3079 78.2188 41.2954Z" fill="#DCE9FF"/>
<path d="M18.3304 15.0204H10.1377" stroke="#DCE9FF" stroke-width="1.44827" stroke-linecap="round"/>
<path d="M14.2344 19.1168V10.9241" stroke="#DCE9FF" stroke-width="1.44828" stroke-linecap="round"/>
<path d="M77.1425 58.9364L77.289 60.1276C77.3576 60.686 77.778 61.1367 78.3303 61.244L79.5085 61.4728C80.0548 61.5789 80.1461 62.3221 79.6418 62.5573L78.5541 63.0647C78.0443 63.3026 77.7456 63.8417 77.8142 64.4L77.9606 65.5913C78.0285 66.1437 77.35 66.4602 76.9704 66.0533L76.1517 65.1756C75.768 64.7642 75.1629 64.6467 74.6531 64.8845L73.5654 65.3919C73.0611 65.6272 72.5503 65.0797 72.8201 64.5929L73.4018 63.543C73.6745 63.051 73.5993 62.4392 73.2155 62.0278L72.3968 61.1502C72.0172 60.7432 72.3801 60.0883 72.9264 60.1944L74.1046 60.4232C74.6569 60.5305 75.2154 60.27 75.4881 59.7779L76.0699 58.728C76.3396 58.2413 77.0746 58.384 77.1425 58.9364Z" stroke="#DCE9FF" stroke-width="0.724138"/>
<path d="M7.96407 38.7077C8.14689 37.5651 9.68496 37.324 10.2086 38.3558L10.6238 39.1739C10.858 39.6353 11.3627 39.8935 11.8739 39.8133L12.7802 39.6712C13.9234 39.492 14.6279 40.8803 13.8085 41.6972L13.1587 42.3449C12.7923 42.7102 12.7027 43.27 12.9369 43.7314L13.3521 44.5495C13.8758 45.5813 12.7732 46.6804 11.743 46.1535L10.9263 45.7357C10.4656 45.5 9.90558 45.5878 9.53909 45.9531L8.88937 46.6008C8.06989 47.4177 6.68384 46.7087 6.86666 45.5661L7.01161 44.6603C7.09337 44.1493 6.83681 43.6438 6.37611 43.4081L5.55936 42.9904C4.52922 42.4634 4.7752 40.9261 5.91833 40.7469L6.82467 40.6048C7.33589 40.5247 7.73737 40.1245 7.81913 39.6135L7.96407 38.7077Z" fill="#DCE9FF"/>
<path d="M24.9355 19.9094C24.9355 17.3465 26.9652 15.2689 29.4691 15.2689H53.6484C56.1524 15.2689 58.1821 17.3465 58.1821 19.9094C58.1821 22.4722 56.1524 24.5499 53.6484 24.5499H29.4691C26.9652 24.5499 24.9355 22.4722 24.9355 19.9094Z" fill="#DCE9FF" stroke="#B5D1FE" stroke-width="1.44828" stroke-linejoin="round"/>
<path d="M25.085 28.7258C25.9456 27.6298 27.2453 26.9922 28.6191 26.9922H54.4974C55.8712 26.9922 57.1709 27.6298 58.0315 28.7258L64.7379 37.2685C65.3849 38.0927 65.7376 39.118 65.7376 40.1753V65.6628C65.7376 68.2258 63.7079 70.3033 61.204 70.3033H21.9125C19.4087 70.3033 17.3789 68.2258 17.3789 65.6628V40.1753C17.3789 39.118 17.7316 38.0927 18.3785 37.2685L25.085 28.7258Z" fill="#DCE9FF" stroke="#B5D1FE" stroke-width="1.44828" stroke-linejoin="round"/>
<path d="M34.9639 48.9734H49.6181" stroke="#B5D1FE" stroke-width="2.89655" stroke-linecap="round" stroke-linejoin="round"/>
<path d="M42.291 41.6464V56.3006" stroke="#B5D1FE" stroke-width="2.89655" stroke-linecap="round" stroke-linejoin="round"/>
</svg>
