<svg width="84" height="85" viewBox="0 0 84 85" fill="none" xmlns="http://www.w3.org/2000/svg">
<path d="M69.5176 47.1309C70.3175 47.1309 70.9659 46.4825 70.9659 45.6826C70.9659 44.8828 70.3175 44.2343 69.5176 44.2343C68.7178 44.2343 68.0693 44.8828 68.0693 45.6826C68.0693 46.4825 68.7178 47.1309 69.5176 47.1309Z" fill="#DCE9FF"/>
<path d="M4.34476 34.0965C5.14463 34.0965 5.79304 33.4481 5.79304 32.6482C5.79304 31.8484 5.14463 31.2 4.34476 31.2C3.5449 31.2 2.89648 31.8484 2.89648 32.6482C2.89648 33.4481 3.5449 34.0965 4.34476 34.0965Z" fill="#DCE9FF"/>
<path fill-rule="evenodd" clip-rule="evenodd" d="M82.2542 51.7953C82.4306 51.9129 82.4783 52.1514 82.3607 52.3278L79.8042 56.1621C79.6866 56.3386 79.4481 56.3863 79.2717 56.2686C79.0952 56.151 79.0475 55.9125 79.1652 55.7361L81.7216 51.9018C81.8393 51.7253 82.0777 51.6776 82.2542 51.7953Z" fill="#DCE9FF"/>
<path fill-rule="evenodd" clip-rule="evenodd" d="M82.9998 55.5232C82.8822 55.6997 82.6437 55.7474 82.4673 55.6297L78.633 53.0733C78.4565 52.9556 78.4088 52.7172 78.5265 52.5407C78.6441 52.3643 78.8826 52.3166 79.059 52.4342L82.8933 54.9907C83.0698 55.1083 83.1175 55.3468 82.9998 55.5232Z" fill="#DCE9FF"/>
<path d="M14.9649 9.9801L8.68945 15.2468" stroke="#DCE9FF" stroke-width="1.44828" stroke-linecap="round"/>
<path d="M14.4611 15.7512L9.19434 9.47577" stroke="#DCE9FF" stroke-width="1.44828" stroke-linecap="round"/>
<path d="M9.39971 44.6095L11.0388 48.1979L14.8298 49.2895L11.2414 50.9286L10.1499 54.7196L8.51078 51.1312L4.71973 50.0397L8.30816 48.4005L9.39971 44.6095Z" fill="#DCE9FF"/>
<path d="M77.9633 24.2029L78.7606 26.9057L81.3313 28.0598L78.6285 28.8571L77.4744 31.4278L76.6772 28.725L74.1064 27.5709L76.8092 26.7736L77.9633 24.2029Z" fill="#DCE9FF"/>
<path d="M62.4477 18.552H21.896C20.6963 18.552 19.7236 19.5247 19.7236 20.7244V68.8207C19.7236 70.0205 20.6963 70.9931 21.896 70.9931H62.4477C63.6475 70.9931 64.6201 70.0205 64.6201 68.8207V20.7244C64.6201 19.5247 63.6475 18.552 62.4477 18.552Z" fill="#DCE9FF" stroke="#B5D1FE" stroke-width="1.44828"/>
<path d="M61.2552 24.5639H23.0889V67.6754H61.2552V24.5639Z" fill="#F1F5FF"/>
<path d="M29.8197 13.7861H28.627C27.8271 13.7861 27.1787 14.4346 27.1787 15.2344V20.4213C27.1787 21.2211 27.8271 21.8695 28.627 21.8695H29.8197C30.6195 21.8695 31.268 21.2211 31.268 20.4213V15.2344C31.268 14.4346 30.6195 13.7861 29.8197 13.7861Z" fill="#B5D1FE"/>
<path d="M43.4505 13.7861H42.2579C41.458 13.7861 40.8096 14.4346 40.8096 15.2344V20.4213C40.8096 21.2211 41.458 21.8695 42.2579 21.8695H43.4505C44.2504 21.8695 44.8988 21.2211 44.8988 20.4213V15.2344C44.8988 14.4346 44.2504 13.7861 43.4505 13.7861Z" fill="#B5D1FE"/>
<path d="M55.7181 13.7861H54.5254C53.7256 13.7861 53.0771 14.4346 53.0771 15.2344V20.4213C53.0771 21.2211 53.7256 21.8695 54.5254 21.8695H55.7181C56.518 21.8695 57.1664 21.2211 57.1664 20.4213V15.2344C57.1664 14.4346 56.518 13.7861 55.7181 13.7861Z" fill="#B5D1FE"/>
<path d="M32 32.7517H52" stroke="#B5D1FE" stroke-width="1.44828" stroke-linecap="round"/>
<path d="M32 38.7517H52" stroke="#B5D1FE" stroke-width="1.44828" stroke-linecap="round"/>
<path d="M34 58.7517L40.2826 51.966L44.7174 56.2517L51 48.7517" stroke="#B5D1FE" stroke-width="2" stroke-linecap="round" stroke-linejoin="round"/>
</svg>
